<svg id="Layer_1" data-name="Layer 1" xmlns="http://www.w3.org/2000/svg" viewBox="0 0 1523 626"><path d="M534.88,320.94c0-1.9,0-2.09.19-2.47l31.14-3.8V316c0,8.73,3.23,11.77,12.72,11.77h22.79c9.49,0,12.72-3,12.72-12v-3.42c0-7.4-2.66-9.3-15-11.2l-31.52-4.56c-23.54-3.42-32.47-11.77-32.47-31.14V249.35c0-22.59,11.58-33.8,34.94-33.8h39.87c23.36,0,34.94,11.21,34.94,33.61a6.6,6.6,0,0,1-.19,2.47l-31.14,3.8V254.1c0-8.74-3.23-11.77-12.72-11.77H579.88c-9.68,0-13.1,3.22-13.1,12v2.85c0,7.59,2.28,9.11,15.19,11l31.52,4.56c23.74,3.42,32.28,11.77,32.28,31.52v16.52c0,22.59-11.58,33.8-34.75,33.8H569.63Q534.88,354.55,534.88,320.94Z" style="fill:#835ef6"/><path d="M766.53,325.87v26.78H673.11V217.45h31.33V325.87Z" style="fill:#835ef6"/><path d="M891.66,249.35v71.4c0,22.59-11.58,33.8-34.94,33.8H815.9c-23.17,0-34.75-11.21-34.75-33.8v-71.4c0-22.59,11.58-33.8,34.75-33.8h40.82C880.08,215.55,891.66,226.76,891.66,249.35Zm-44-7H825.2c-9.49,0-12.72,3-12.72,12v61.52c0,8.92,3.23,12,12.72,12h22.41c9.49,0,12.72-3,12.72-12V254.29C860.33,245.36,857.1,242.33,847.61,242.33Z" style="fill:#835ef6"/><path d="M917.86,325.49v-54.3c0-20.13,9.49-29.05,30.38-29.05h38.17c20.88,0,30.38,8.92,30.38,29.05a15.42,15.42,0,0,1-.19,3.23L987,277.07v-1.13c0-7.6-2.85-10.07-10.83-10.07H958.5c-8,0-10.83,2.47-10.83,10.07v44.81c0,7.59,2.85,10.06,10.83,10.06h17.65c8,0,10.83-2.47,10.83-10.06v-1.14l29.62,2.66a15.37,15.37,0,0,1,.19,3.22c0,20.13-9.5,29.06-30.38,29.06H948.24C927.35,354.55,917.86,345.62,917.86,325.49Z"/><path d="M1040.14,325.49v-54.3c0-20.13,9.49-29.05,30.38-29.05h40.83c20.88,0,30.38,8.92,30.38,29.05v54.3c0,20.13-9.5,29.06-30.38,29.06h-40.83C1049.63,354.55,1040.14,345.62,1040.14,325.49Zm60.95,5.32c8,0,10.83-2.47,10.83-10.06V275.94c0-7.6-2.85-10.07-10.83-10.07h-20.32c-8,0-10.82,2.47-10.82,10.07v44.81c0,7.59,2.85,10.06,10.82,10.06Z"/><path d="M1267.8,271.19v81.46H1238V275.94c0-7.6-2.84-10.07-10.82-10.07h-17.28c-8,0-10.82,2.47-10.82,10.07v76.71h-29.81V264.92L1167.93,244h25.25l1.9,7.78c3.8-6.65,9.87-9.68,22-9.68h20.31C1258.31,242.14,1267.8,251.06,1267.8,271.19Z"/><path d="M1342.62,238.34V244H1373v23.73h-30.38v84.88H1312.8V267.77h-25.25V244h25.25V233.59c0-20.13,9.5-29.05,30.57-29.05H1373v23.73h-19.56C1345.46,228.27,1342.62,230.74,1342.62,238.34Z"/><path d="M554.39,398.59a4.81,4.81,0,0,0-2.23-3.61,8.57,8.57,0,0,0-4.81-1.29,9.09,9.09,0,0,0-3.64.68,5.77,5.77,0,0,0-2.41,1.85,4.41,4.41,0,0,0-.87,2.68,3.7,3.7,0,0,0,.61,2.15,5.13,5.13,0,0,0,1.55,1.49,10.72,10.72,0,0,0,2,1c.69.25,1.33.45,1.91.6l3.19.86c.81.22,1.72.51,2.73.89a12.79,12.79,0,0,1,2.89,1.54,7.93,7.93,0,0,1,2.29,2.49,7.17,7.17,0,0,1,.91,3.72,8.32,8.32,0,0,1-1.33,4.59,9.12,9.12,0,0,1-3.86,3.26,16.16,16.16,0,0,1-12,.12,9.19,9.19,0,0,1-3.86-3A8.63,8.63,0,0,1,535.9,414h3.92A4.83,4.83,0,0,0,541,417a6.31,6.31,0,0,0,2.66,1.71,10.68,10.68,0,0,0,3.49.56,10.23,10.23,0,0,0,3.9-.71,6.67,6.67,0,0,0,2.74-2,4.71,4.71,0,0,0,1-3A3.69,3.69,0,0,0,554,411a6.45,6.45,0,0,0-2.3-1.59,24.51,24.51,0,0,0-3.07-1.07l-3.86-1.1a14.41,14.41,0,0,1-5.82-3,6.6,6.6,0,0,1-2.14-5.13,7.58,7.58,0,0,1,1.43-4.6,9.45,9.45,0,0,1,3.86-3.06,13,13,0,0,1,5.42-1.09,12.81,12.81,0,0,1,5.39,1.08,9.45,9.45,0,0,1,3.74,2.94,7.32,7.32,0,0,1,1.47,4.24Z"/><path d="M563.88,422.11V390.76H582.8v3.36H567.67v10.6h14.15v3.36H567.67v10.66H583v3.37Z"/><path d="M588.79,422.11V390.76h10.6a12.85,12.85,0,0,1,6,1.24,8.18,8.18,0,0,1,3.49,3.42,10.62,10.62,0,0,1,1.13,4.95,10.4,10.4,0,0,1-1.13,4.91,7.92,7.92,0,0,1-3.48,3.36,12.92,12.92,0,0,1-6,1.22h-8.57v-3.43h8.45a9.5,9.5,0,0,0,4-.73,4.69,4.69,0,0,0,2.23-2.09,7.1,7.1,0,0,0,.7-3.24,7.25,7.25,0,0,0-.71-3.29,4.81,4.81,0,0,0-2.25-2.18,9.09,9.09,0,0,0-4.08-.78h-6.68v28ZM603.55,408l7.72,14.09h-4.41L599.27,408Z"/><path d="M616,390.76l9.31,26.39h.36L635,390.76h4l-11.51,31.35h-3.92l-11.51-31.35Z"/><path d="M646.83,390.76v31.35H643V390.76Z"/><path d="M678.79,400.55H675a7.75,7.75,0,0,0-1.17-2.87,7.89,7.89,0,0,0-2-2.09,8.52,8.52,0,0,0-2.62-1.28,10.31,10.31,0,0,0-3-.43,9.5,9.5,0,0,0-5.15,1.44,9.88,9.88,0,0,0-3.66,4.24,18.06,18.06,0,0,0,0,13.75,9.94,9.94,0,0,0,3.66,4.24,9.58,9.58,0,0,0,5.15,1.43,10.66,10.66,0,0,0,3-.42,9,9,0,0,0,2.62-1.28,8.08,8.08,0,0,0,2-2.1,7.9,7.9,0,0,0,1.17-2.87h3.8a12.81,12.81,0,0,1-1.56,4.3,11.51,11.51,0,0,1-2.82,3.22,12.13,12.13,0,0,1-3.77,2,14.12,14.12,0,0,1-4.46.69,13.22,13.22,0,0,1-7.14-2,13.46,13.46,0,0,1-4.91-5.58,21.41,21.41,0,0,1,0-17.14,13.37,13.37,0,0,1,4.91-5.57,13.13,13.13,0,0,1,7.14-2,14.12,14.12,0,0,1,4.46.69,12.32,12.32,0,0,1,3.77,2,11.61,11.61,0,0,1,2.82,3.21A12.79,12.79,0,0,1,678.79,400.55Z"/><path d="M684.05,422.11V390.76H703v3.36H687.85v10.6H702v3.36H687.85v10.66h15.37v3.37Z"/><path d="M720.23,422.11V390.76H724v28H738.6v3.37Z"/><path d="M743.62,422.11V390.76h18.92v3.36H747.41v10.6h14.15v3.36H747.41v10.66h15.37v3.37Z"/><path d="M769.82,390.76l9.31,26.39h.36l9.31-26.39h4l-11.51,31.35h-3.92l-11.51-31.35Z"/><path d="M796.82,422.11V390.76h18.92v3.36H800.61v10.6h14.15v3.36H800.61v10.66H816v3.37Z"/><path d="M821.73,422.11V390.76h3.8v28H840.1v3.37Z"/><path d="M882.83,406.43A19,19,0,0,1,881,415a13.46,13.46,0,0,1-4.91,5.58,14,14,0,0,1-14.27,0A13.46,13.46,0,0,1,857,415a21.41,21.41,0,0,1,0-17.14,13.37,13.37,0,0,1,4.91-5.57,14,14,0,0,1,14.27,0,13.37,13.37,0,0,1,4.91,5.57A19,19,0,0,1,882.83,406.43Zm-3.67,0a15.76,15.76,0,0,0-1.35-6.87,10,10,0,0,0-3.66-4.24,9.93,9.93,0,0,0-10.3,0,9.88,9.88,0,0,0-3.66,4.24,18.06,18.06,0,0,0,0,13.75,9.94,9.94,0,0,0,3.66,4.24,10,10,0,0,0,10.3,0,10.08,10.08,0,0,0,3.66-4.24A15.77,15.77,0,0,0,879.16,406.43Z"/><path d="M888.34,422.11V390.76h11a11.47,11.47,0,0,1,5.4,1.12,7.48,7.48,0,0,1,3.17,3,8.44,8.44,0,0,1,1,4.18,6.92,6.92,0,0,1-.71,3.34,5.63,5.63,0,0,1-1.87,2.08,8.72,8.72,0,0,1-2.5,1.14v.3a6.17,6.17,0,0,1,2.9,1,7.38,7.38,0,0,1,2.43,2.63,9.2,9.2,0,0,1-.09,8.44,7.4,7.4,0,0,1-3.39,3,13.93,13.93,0,0,1-6,1.11Zm3.8-17.58h7a7,7,0,0,0,3.1-.67,5.43,5.43,0,0,0,2.2-1.9,5,5,0,0,0,.82-2.88,4.79,4.79,0,0,0-1.44-3.51,6.24,6.24,0,0,0-4.56-1.45h-7.16Zm0,14.21h7.53q3.72,0,5.29-1.45a4.61,4.61,0,0,0,1.57-3.51,5.67,5.67,0,0,0-.81-2.95,6,6,0,0,0-2.32-2.17,7.25,7.25,0,0,0-3.55-.82h-7.71Z"/><path d="M927.52,390.76h3.8v22.41a10.85,10.85,0,0,1-1.1,5.09,7.54,7.54,0,0,1-3.11,3.19,9.83,9.83,0,0,1-4.73,1.09,10.65,10.65,0,0,1-4.58-1,7.51,7.51,0,0,1-3.15-2.68,7.37,7.37,0,0,1-1.15-4.15h3.74a4.08,4.08,0,0,0,.66,2.32,4.53,4.53,0,0,0,1.83,1.54,6.24,6.24,0,0,0,2.65.55,5.35,5.35,0,0,0,2.79-.69,4.43,4.43,0,0,0,1.75-2,8,8,0,0,0,.6-3.28Z"/><path d="M938.05,422.11V390.76H957v3.36H941.85v10.6H956v3.36H941.85v10.66h15.37v3.37Z"/><path d="M988.19,400.55H984.4a7.92,7.92,0,0,0-3.19-5,8.57,8.57,0,0,0-2.63-1.28,10.31,10.31,0,0,0-3-.43,9.52,9.52,0,0,0-5.15,1.44,9.88,9.88,0,0,0-3.66,4.24,18.18,18.18,0,0,0,0,13.75,9.94,9.94,0,0,0,3.66,4.24,9.6,9.6,0,0,0,5.15,1.43,10.66,10.66,0,0,0,3-.42,9.05,9.05,0,0,0,2.63-1.28,8,8,0,0,0,3.19-5h3.79a12.4,12.4,0,0,1-1.56,4.3,11.47,11.47,0,0,1-2.81,3.22,12.18,12.18,0,0,1-3.78,2,14.12,14.12,0,0,1-4.46.69,13.19,13.19,0,0,1-7.13-2,13.55,13.55,0,0,1-4.92-5.58,21.41,21.41,0,0,1,0-17.14,13.46,13.46,0,0,1,4.92-5.57,13.1,13.1,0,0,1,7.13-2A14.12,14.12,0,0,1,980,391a12.37,12.37,0,0,1,3.78,2,11.57,11.57,0,0,1,2.81,3.21A12.37,12.37,0,0,1,988.19,400.55Z"/><path d="M991.74,394.12v-3.36h23.52v3.36h-9.86v28h-3.8v-28Z"/><path d="M1024.07,390.76v31.35h-3.8V390.76Z"/><path d="M1032.08,390.76l9.31,26.39h.37l9.3-26.39h4l-11.52,31.35h-3.92l-11.51-31.35Z"/><path d="M1059.08,422.11V390.76H1078v3.36h-15.12v10.6H1077v3.36h-14.14v10.66h15.37v3.37Z"/><path d="M1120.49,400.55h-3.8a7.75,7.75,0,0,0-1.17-2.87,8,8,0,0,0-2-2.09,8.57,8.57,0,0,0-2.63-1.28,10.31,10.31,0,0,0-3-.43,9.55,9.55,0,0,0-5.15,1.44,10,10,0,0,0-3.66,4.24,18.18,18.18,0,0,0,0,13.75,10.08,10.08,0,0,0,3.66,4.24,9.63,9.63,0,0,0,5.15,1.43,10.66,10.66,0,0,0,3-.42,9.05,9.05,0,0,0,2.63-1.28,8.24,8.24,0,0,0,2-2.1,7.9,7.9,0,0,0,1.17-2.87h3.8a12.81,12.81,0,0,1-1.56,4.3,11.67,11.67,0,0,1-2.82,3.22,12.13,12.13,0,0,1-3.77,2,14.19,14.19,0,0,1-4.47.69,13.19,13.19,0,0,1-7.13-2,13.46,13.46,0,0,1-4.91-5.58,21.41,21.41,0,0,1,0-17.14,13.37,13.37,0,0,1,4.91-5.57,13.1,13.1,0,0,1,7.13-2,14.19,14.19,0,0,1,4.47.69,12.32,12.32,0,0,1,3.77,2,11.77,11.77,0,0,1,2.82,3.21A12.79,12.79,0,0,1,1120.49,400.55Z"/><path d="M1152.2,406.43a19.11,19.11,0,0,1-1.79,8.57,13.46,13.46,0,0,1-4.91,5.58,14,14,0,0,1-14.27,0,13.46,13.46,0,0,1-4.91-5.58,21.3,21.3,0,0,1,0-17.14,13.37,13.37,0,0,1,4.91-5.57,14,14,0,0,1,14.27,0,13.37,13.37,0,0,1,4.91,5.57A19.14,19.14,0,0,1,1152.2,406.43Zm-3.67,0a15.61,15.61,0,0,0-1.36-6.87,9.88,9.88,0,0,0-3.66-4.24,9.93,9.93,0,0,0-10.3,0,10,10,0,0,0-3.66,4.24,18.18,18.18,0,0,0,0,13.75,10.08,10.08,0,0,0,3.66,4.24,10,10,0,0,0,10.3,0,9.94,9.94,0,0,0,3.66-4.24A15.63,15.63,0,0,0,1148.53,406.43Z"/><path d="M1182.57,390.76v31.35h-3.68l-17.08-24.62h-.31v24.62h-3.79V390.76h3.67l17.15,24.67h.3V390.76Z"/><path d="M1189.3,422.11V390.76h18.8v3.36h-15v10.6h13.6v3.36h-13.6v14Z"/><path d="M1213.73,422.11V390.76h18.92v3.36h-15.13v10.6h14.15v3.36h-14.15v10.66h15.37v3.37Z"/><path d="M1238.64,422.11V390.76h10.59a12.93,12.93,0,0,1,6,1.24,8.18,8.18,0,0,1,3.49,3.42,10.62,10.62,0,0,1,1.13,4.95,10.4,10.4,0,0,1-1.13,4.91,8,8,0,0,1-3.48,3.36,12.92,12.92,0,0,1-6,1.22h-8.58v-3.43h8.45a9.44,9.44,0,0,0,4-.73,4.71,4.71,0,0,0,2.24-2.09,7.1,7.1,0,0,0,.69-3.24,7.25,7.25,0,0,0-.7-3.29,4.81,4.81,0,0,0-2.25-2.18,9.11,9.11,0,0,0-4.09-.78h-6.67v28ZM1253.4,408l7.71,14.09h-4.4l-7.6-14.09Z"/><path d="M1265.33,422.11V390.76h18.92v3.36h-15.12v10.6h14.14v3.36h-14.14v10.66h15.37v3.37Z"/><path d="M1315.11,390.76v31.35h-3.67l-17.09-24.62h-.3v24.62h-3.8V390.76h3.67l17.15,24.67h.31V390.76Z"/><path d="M1347.07,400.55h-3.8a7.75,7.75,0,0,0-1.17-2.87,8,8,0,0,0-2-2.09,8.63,8.63,0,0,0-2.62-1.28,10.33,10.33,0,0,0-3-.43,9.55,9.55,0,0,0-5.15,1.44,9.93,9.93,0,0,0-3.65,4.24,18.06,18.06,0,0,0,0,13.75,10,10,0,0,0,3.65,4.24,9.63,9.63,0,0,0,5.15,1.43,10.68,10.68,0,0,0,3-.42,9.12,9.12,0,0,0,2.62-1.28,8.24,8.24,0,0,0,2-2.1,7.9,7.9,0,0,0,1.17-2.87h3.8a12.81,12.81,0,0,1-1.56,4.3,11.67,11.67,0,0,1-2.82,3.22,12.13,12.13,0,0,1-3.77,2,14.19,14.19,0,0,1-4.47.69,13.19,13.19,0,0,1-7.13-2,13.46,13.46,0,0,1-4.91-5.58,21.41,21.41,0,0,1,0-17.14,13.37,13.37,0,0,1,4.91-5.57,13.1,13.1,0,0,1,7.13-2,14.19,14.19,0,0,1,4.47.69,12.32,12.32,0,0,1,3.77,2,11.77,11.77,0,0,1,2.82,3.21A12.79,12.79,0,0,1,1347.07,400.55Z"/><path d="M1352.33,422.11V390.76h18.92v3.36h-15.12v10.6h14.14v3.36h-14.14v10.66h15.37v3.37Z"/><path d="M433,313A129.06,129.06,0,0,0,432,296.81l1-3.42L460.36,256l-28.07-48.61-48.12,5.23a126.89,126.89,0,0,0-31.14-18l-19.51-44.26H277.39l-19.52,44.26a126.84,126.84,0,0,0-31.14,18l-48.12-5.23L150.54,256l28.59,39a126.59,126.59,0,0,0-.23,34.08l-.91,3.43L150.54,370l28.07,48.61,48.12-5.24a126.88,126.88,0,0,0,31.14,18l19.52,44.25h56.13L353,431.41a127.24,127.24,0,0,0,31.14-18l48.12,5.24L460.36,370,431.77,331A128.83,128.83,0,0,0,433,313ZM203.9,236.82A126.34,126.34,0,0,0,184.29,275L169.6,254.94l17.64-30.56,40.63,4.42a9,9,0,0,0,6.69-2,111.49,111.49,0,0,1,31.71-18.33,9,9,0,0,0,5.06-4.78l16.48-37.37h35.28l9.63,21.83A128,128,0,0,0,304.36,185h-7.87v15.74h7.87a110.94,110.94,0,0,1,38.46,6.82,8.71,8.71,0,0,0,1.82.94,111.66,111.66,0,0,1,16,7.5,113.25,113.25,0,0,1,10.47,7l6.3,4.73.08-.1A9,9,0,0,0,383,228.8l40.64-4.42,17.64,30.56L417.61,287.3l-24.24,15.43c-11.87-14.55-46.18-51.58-87.92-51.58-48.35,0-86.74,49.69-91.81,56.56l-19.38,11.93V313a110.07,110.07,0,0,1,22.19-66.67m13,66.78c10.11-12.38,41-46.22,76-46.22s65.92,33.84,76,46.22c-9.71,12.4-39.39,46-76,46S239.11,325.5,229.42,313.11Zm179.29,73.73A126.3,126.3,0,0,0,426.61,351l14.69,20.08-17.64,30.56L383,397.2a9.06,9.06,0,0,0-6.66,2,111.15,111.15,0,0,1-31.69,18.32,9.07,9.07,0,0,0-5.08,4.8l-16.48,37.37H287.81L277.34,436a127.92,127.92,0,0,0,27,2.89h7.87V423.1h-7.87a110.45,110.45,0,0,1-64.68-20.73l-6.67-4.2a9.05,9.05,0,0,0-5.12-1l-40.65,4.42L169.6,371.06l23.65-32.31,24.43-15c11.8,15,44.72,51.14,87.77,51.14,48.09,0,83.55-45.12,91-55.44l20.15-12.83V313a110.35,110.35,0,0,1-20.73,64.67" style="fill:#835ef6"/><circle cx="305.45" cy="313" r="30.84" style="fill:#835ef6"/></svg>