<?xml version="1.0" encoding="UTF-8" standalone="no"?>
<svg
   xmlns:dc="http://purl.org/dc/elements/1.1/"
   xmlns:cc="http://creativecommons.org/ns#"
   xmlns:rdf="http://www.w3.org/1999/02/22-rdf-syntax-ns#"
   xmlns:svg="http://www.w3.org/2000/svg"
   xmlns="http://www.w3.org/2000/svg"
   xmlns:sodipodi="http://sodipodi.sourceforge.net/DTD/sodipodi-0.dtd"
   xmlns:inkscape="http://www.inkscape.org/namespaces/inkscape"
   version="1.1"
   id="svg10"
   xml:space="preserve"
   width="1440"
   height="482.98666"
   viewBox="0 0 1440 482.98666"
   sodipodi:docname="openslo_log.svg"
   inkscape:export-filename="/home/ibartholomew/Downloads/g20.png"
   inkscape:export-xdpi="49.046917"
   inkscape:export-ydpi="49.046917"
   inkscape:version="1.0.2 (e86c870879, 2021-01-15, custom)"><metadata
     id="metadata16"><rdf:RDF><cc:Work
         rdf:about=""><dc:format>image/svg+xml</dc:format><dc:type
           rdf:resource="http://purl.org/dc/dcmitype/StillImage" /><dc:title></dc:title></cc:Work></rdf:RDF></metadata><defs
     id="defs14"><clipPath
       clipPathUnits="userSpaceOnUse"
       id="clipPath26"><path
         d="M 0,362.24 H 1080 V 0 H 0 Z"
         id="path24" /></clipPath></defs><sodipodi:namedview
     pagecolor="#ffffff"
     bordercolor="#666666"
     borderopacity="1"
     objecttolerance="10"
     gridtolerance="10"
     guidetolerance="10"
     inkscape:pageopacity="0"
     inkscape:pageshadow="2"
     inkscape:window-width="3840"
     inkscape:window-height="2081"
     id="namedview12"
     showgrid="false"
     inkscape:zoom="1.1409722"
     inkscape:cx="720"
     inkscape:cy="241.49333"
     inkscape:window-x="0"
     inkscape:window-y="38"
     inkscape:window-maximized="1"
     inkscape:current-layer="g22" /><g
     id="g18"
     inkscape:groupmode="layer"
     inkscape:label="openslo_logo_final_pack_rgb"
     transform="matrix(1.3333333,0,0,-1.3333333,0,482.98667)"><g
       id="g20"
       inkscape:export-xdpi="96"
       inkscape:export-ydpi="96"><g
         id="g22"
         clip-path="url(#clipPath26)"><g
           id="g28"
           transform="translate(395.1045,182.5493)"><path
             d="m 0,0 c 0,20.865 -10.575,32.869 -26.581,32.869 -16.291,0 -26.867,-12.004 -26.867,-32.869 0,-21.437 10.29,-33.013 26.723,-33.013 C -10.432,-33.013 0,-21.437 0,0 m -75.6,0 c 0,36.871 23.152,53.02 49.162,53.02 C -0.857,53.02 22.58,36.871 22.58,0 22.58,-37.586 -0.714,-53.163 -26.725,-53.163 -52.733,-53.163 -75.6,-37.586 -75.6,0"
             style="fill:#4974ea;fill-opacity:1;fill-rule:nonzero;stroke:none"
             id="path30" /></g><g
           id="g32"
           transform="translate(494.8525,171.9731)"><path
             d="m 0,0 c 0,15.435 -8.432,24.581 -20.579,24.581 -12.148,0 -20.723,-9.146 -20.723,-24.581 0,-15.434 8.575,-24.437 20.58,-24.437 C -8.432,-24.437 0,-15.434 0,0 m -62.31,40.729 h 21.724 v -13.29 c 3.572,8.432 13.29,14.863 26.151,14.863 18.722,0 36.158,-12.862 36.158,-42.302 0,-29.439 -17.578,-42.301 -36.3,-42.301 -12.862,0 -22.437,6.716 -26.009,15.149 V -67.454 H -62.31 Z"
             style="fill:#4974ea;fill-opacity:1;fill-rule:nonzero;stroke:none"
             id="path34" /></g><g
           id="g36"
           transform="translate(591.458,181.1196)"><path
             d="M 0,0 C -0.857,10.861 -8.29,17.864 -19.865,17.864 -31.013,17.864 -38.872,11.576 -40.159,0 Z m -62.31,-9.289 c 0,25.152 17.15,42.444 41.873,42.444 27.01,0 42.874,-18.864 40.301,-47.445 h -60.451 c 0.428,-13.291 8.432,-21.009 21.437,-21.009 9.289,0 15.434,3.43 18.435,10.147 l 19.864,-2.429 C 13.291,-43.444 0,-51.733 -19.722,-51.733 c -25.724,0 -42.588,16.863 -42.588,42.444"
             style="fill:#4974ea;fill-opacity:1;fill-rule:nonzero;stroke:none"
             id="path38" /></g><g
           id="g40"
           transform="translate(627.04,212.7026)"><path
             d="m 0,0 h 21.723 v -13.146 c 3.714,9.002 12.861,14.718 25.294,14.718 21.865,0 31.727,-12.576 31.727,-38.3 V -81.744 H 57.021 v 43.015 c 0,15.006 -5.574,21.866 -17.721,21.866 -12.575,0 -17.577,-8.003 -17.577,-23.152 V -81.744 H 0 Z"
             style="fill:#4974ea;fill-opacity:1;fill-rule:nonzero;stroke:none"
             id="path42" /></g><g
           id="g44"
           transform="translate(716.9277,158.9682)"><path
             d="m 0,0 21.579,2.859 c 3.144,-9.29 11.004,-14.292 22.151,-14.292 11.148,0 17.864,4.574 17.721,12.291 -0.286,20.293 -57.736,7.003 -57.736,45.874 0,18.15 15.434,30.297 37.586,30.297 22.437,0 37.586,-9.574 41.587,-28.01 L 62.165,46.16 c -3.286,8.289 -9.86,12.576 -20.149,12.576 -10.147,0 -16.292,-4.429 -16.292,-11.575 0,-22.009 58.45,-6.289 58.45,-45.589 0,-18.72 -15.863,-31.011 -40.301,-31.011 C 21.008,-29.439 4.43,-18.864 0,0"
             style="fill:#231f20;fill-opacity:1;fill-rule:nonzero;stroke:none"
             id="path46" /></g><g
           id="g48"
           transform="translate(817.3896,234.4262)"><path
             d="m 0,0 h 22.58 v -83.318 h 38.3 v -20.15 H 0 Z"
             style="fill:#231f20;fill-opacity:1;fill-rule:nonzero;stroke:none"
             id="path50" /></g><g
           id="g52"
           transform="translate(959.0107,182.5493)"><path
             d="m 0,0 c 0,20.865 -10.575,32.869 -26.581,32.869 -16.292,0 -26.867,-12.004 -26.867,-32.869 0,-21.437 10.29,-33.013 26.723,-33.013 C -10.432,-33.013 0,-21.437 0,0 m -75.6,0 c 0,36.871 23.152,53.02 49.162,53.02 C -0.857,53.02 22.58,36.871 22.58,0 22.58,-37.586 -0.714,-53.163 -26.725,-53.163 -52.734,-53.163 -75.6,-37.586 -75.6,0"
             style="fill:#231f20;fill-opacity:1;fill-rule:nonzero;stroke:none"
             id="path54" /></g><g
           id="g56"
           transform="translate(255.7539,157.2563)"><path
             d="m 0,0 -32.173,-40.343 c -1.892,-2.375 -4.721,-3.739 -7.759,-3.744 -3.868,0 -7.407,2.259 -9.032,5.753 l -6.701,14.423 c -0.584,1.257 -0.637,2.663 -0.149,3.96 0.487,1.297 1.454,2.32 2.723,2.882 0.625,0.276 1.287,0.417 1.969,0.417 2.052,0 3.953,-1.239 4.843,-3.154 l 2.266,-4.877 c 1.007,-2.168 3.119,-3.513 5.514,-3.513 1.853,0 3.579,0.833 4.738,2.286 l 14.422,18.086 c 1.33,1.667 1.688,3.859 0.959,5.862 -0.73,2.003 -2.413,3.451 -4.504,3.873 l -5.812,1.174 c -2.84,0.574 -4.747,3.257 -4.252,5.979 0.443,2.439 2.558,4.209 5.027,4.209 0.34,0 0.685,-0.035 1.023,-0.103 l 6.897,-1.393 c 0.402,-0.082 0.813,-0.123 1.218,-0.123 1.846,0 3.571,0.836 4.734,2.293 1.155,1.449 1.581,3.32 1.168,5.131 l -5.272,23.102 c -0.635,2.78 -3.075,4.722 -5.933,4.722 -1.362,0 -2.655,-0.449 -3.738,-1.3 l -5.197,-4.086 c -0.911,-0.716 -2.003,-1.095 -3.16,-1.095 -1.732,0 -3.338,0.868 -4.293,2.323 -1.444,2.196 -0.872,5.254 1.301,6.961 l 5.176,4.069 c 1.657,1.304 2.511,3.333 2.282,5.431 -0.229,2.098 -1.5,3.897 -3.401,4.811 l -21.738,10.468 c -0.835,0.404 -1.721,0.607 -2.633,0.607 -1.604,0 -3.177,-0.657 -4.317,-1.804 -1.141,-1.146 -1.764,-2.676 -1.756,-4.305 l 0.037,-6.505 c 0.006,-1.373 -0.522,-2.666 -1.491,-3.639 -0.967,-0.974 -2.257,-1.51 -3.631,-1.51 -0.104,0 -0.209,0.003 -0.315,0.009 -2.68,0.159 -4.791,2.497 -4.807,5.321 l -0.035,6.418 c -0.016,3.331 -2.74,6.043 -6.069,6.043 -0.913,0 -1.799,-0.205 -2.635,-0.607 l -21.571,-10.388 c -1.901,-0.915 -3.172,-2.714 -3.401,-4.811 -0.228,-2.096 0.625,-4.127 2.283,-5.431 l 5.314,-4.178 c 2.172,-1.706 2.743,-4.763 1.302,-6.957 -0.956,-1.456 -2.563,-2.326 -4.296,-2.326 -1.155,0 -2.248,0.379 -3.159,1.096 l -5.504,4.327 c -1.083,0.851 -2.376,1.301 -3.738,1.301 -2.859,0 -5.298,-1.942 -5.933,-4.723 l -5.324,-23.326 c -0.413,-1.813 0.012,-3.684 1.169,-5.133 1.162,-1.456 2.886,-2.292 4.732,-2.292 0.406,0 0.817,0.041 1.22,0.123 l 6.814,1.376 c 0.338,0.068 0.681,0.103 1.021,0.103 2.469,0 4.584,-1.767 5.029,-4.203 0.5,-2.725 -1.407,-5.41 -4.25,-5.985 l -5.746,-1.16 c -2.091,-0.422 -3.773,-1.869 -4.503,-3.873 -0.729,-2.003 -0.372,-4.195 0.958,-5.863 l 14.555,-18.251 c 1.158,-1.454 2.886,-2.286 4.737,-2.286 2.395,0 4.508,1.346 5.515,3.513 l 2.433,5.24 c 0.838,1.801 2.662,2.964 4.649,2.964 0.745,0 1.471,-0.161 2.154,-0.478 2.561,-1.19 3.676,-4.241 2.486,-6.802 l -6.769,-14.569 c -1.623,-3.495 -5.162,-5.753 -9.017,-5.753 l -0.112,10e-4 c -3.008,0.033 -5.8,1.397 -7.67,3.742 l -32.291,40.491 c -0.977,1.226 -1.336,2.805 -0.987,4.332 l 13.212,57.886 c 0.347,1.528 1.358,2.794 2.769,3.473 l 53.494,25.761 c 0.69,0.332 1.458,0.507 2.222,0.507 0.765,0 1.532,-0.175 2.223,-0.507 l 53.493,-25.761 c 1.412,-0.679 2.422,-1.945 2.769,-3.473 L 0.989,4.333 C 1.338,2.806 0.978,1.227 0,0 m -73.747,10.642 c -3.348,1.669 -5.381,5.581 -4.094,9.776 0.752,2.452 2.706,4.401 5.158,5.148 4.218,1.287 8.144,-0.781 9.793,-4.162 l 21.139,-30.996 c 0.501,-0.733 -0.386,-1.616 -1.117,-1.112 l -30.613,21.081 c -0.11,0.073 -0.195,0.165 -0.266,0.265 M 15.402,8.019 2.336,65.264 C 0.93,71.429 -3.145,76.538 -8.841,79.281 l -52.905,25.478 c -2.779,1.338 -5.879,2.046 -8.963,2.046 -3.084,0 -6.183,-0.708 -8.963,-2.046 l -52.903,-25.478 c -5.697,-2.743 -9.773,-7.852 -11.178,-14.015 L -156.819,8.021 c -1.408,-6.165 0.046,-12.535 3.988,-17.48 l 31.935,-40.045 c 4.782,-5.996 11.922,-9.486 19.592,-9.573 h 0.296 60.761 c 7.768,0.012 15,3.646 19.842,9.719 l 31.819,39.9 c 3.942,4.944 5.396,11.314 3.988,17.477"
             style="fill:#231f20;fill-opacity:1;fill-rule:nonzero;stroke:none"
             id="path58" /></g></g></g></g></svg>
