<svg id="svg" version="1.1" xmlns="http://www.w3.org/2000/svg" xmlns:xlink="http://www.w3.org/1999/xlink" width="400" height="400" viewBox="0, 0, 400,400"><g id="svgg"><path id="path0" d="M243.600 88.786 C 243.600 89.014,243.185 89.200,242.678 89.200 C 241.596 89.200,238.800 91.618,238.800 92.554 C 238.800 92.909,238.620 93.200,238.400 93.200 C 238.180 93.200,238.000 93.560,238.000 94.000 C 238.000 94.440,237.820 94.800,237.600 94.800 C 237.380 94.800,237.200 95.149,237.200 95.576 C 237.200 96.003,237.020 96.464,236.800 96.600 C 236.580 96.736,236.400 97.287,236.400 97.824 C 236.400 98.361,236.220 98.800,236.000 98.800 C 235.780 98.800,235.600 99.149,235.600 99.576 C 235.600 100.003,235.420 100.464,235.200 100.600 C 234.980 100.736,234.800 101.287,234.800 101.824 C 234.800 102.361,234.620 102.800,234.400 102.800 C 234.180 102.800,234.000 103.130,234.000 103.533 C 234.000 103.937,233.875 104.391,233.723 104.544 C 233.571 104.696,233.385 105.221,233.311 105.710 C 233.237 106.200,233.002 106.660,232.788 106.733 C 232.575 106.807,232.400 107.201,232.400 107.610 C 232.400 108.018,232.220 108.464,232.000 108.600 C 231.780 108.736,231.600 109.287,231.600 109.824 C 231.600 110.361,231.420 110.800,231.200 110.800 C 230.980 110.800,230.800 111.160,230.800 111.600 C 230.800 112.040,230.620 112.400,230.400 112.400 C 230.180 112.400,230.000 112.940,230.000 113.600 C 230.000 114.260,229.820 114.800,229.600 114.800 C 229.380 114.800,229.200 115.160,229.200 115.600 C 229.200 116.040,229.020 116.400,228.800 116.400 C 228.580 116.400,228.400 116.940,228.400 117.600 C 228.400 118.260,228.220 118.800,228.000 118.800 C 227.780 118.800,227.600 119.160,227.600 119.600 C 227.600 120.040,227.420 120.400,227.200 120.400 C 226.980 120.400,226.800 120.940,226.800 121.600 C 226.800 122.260,226.620 122.800,226.400 122.800 C 226.180 122.800,226.000 123.160,226.000 123.600 C 226.000 124.040,225.820 124.400,225.600 124.400 C 225.380 124.400,225.200 124.940,225.200 125.600 C 225.200 126.260,225.020 126.800,224.800 126.800 C 224.580 126.800,224.400 127.160,224.400 127.600 C 224.400 128.040,224.220 128.400,224.000 128.400 C 223.780 128.400,223.600 128.839,223.600 129.376 C 223.600 129.913,223.420 130.464,223.200 130.600 C 222.980 130.736,222.800 131.197,222.800 131.624 C 222.800 132.051,222.620 132.400,222.400 132.400 C 222.180 132.400,222.000 132.839,222.000 133.376 C 222.000 133.913,221.820 134.464,221.600 134.600 C 221.380 134.736,221.200 135.197,221.200 135.624 C 221.200 136.051,221.020 136.400,220.800 136.400 C 220.580 136.400,220.400 136.839,220.400 137.376 C 220.400 137.913,220.220 138.464,220.000 138.600 C 219.780 138.736,219.600 139.197,219.600 139.624 C 219.600 140.051,219.420 140.400,219.200 140.400 C 218.980 140.400,218.800 140.839,218.800 141.376 C 218.800 141.913,218.620 142.464,218.400 142.600 C 218.180 142.736,218.000 143.197,218.000 143.624 C 218.000 144.051,217.820 144.400,217.600 144.400 C 217.380 144.400,217.200 144.839,217.200 145.376 C 217.200 145.913,217.020 146.464,216.800 146.600 C 216.580 146.736,216.400 147.197,216.400 147.624 C 216.400 148.051,216.220 148.400,216.000 148.400 C 215.780 148.400,215.600 148.839,215.600 149.376 C 215.600 149.913,215.420 150.464,215.200 150.600 C 214.980 150.736,214.800 151.197,214.800 151.624 C 214.800 152.051,214.620 152.400,214.400 152.400 C 214.180 152.400,214.000 152.839,214.000 153.376 C 214.000 153.913,213.820 154.464,213.600 154.600 C 213.380 154.736,213.200 155.197,213.200 155.624 C 213.200 156.051,213.020 156.400,212.800 156.400 C 212.580 156.400,212.400 156.749,212.400 157.176 C 212.400 157.603,212.220 158.064,212.000 158.200 C 211.780 158.336,211.600 158.887,211.600 159.424 C 211.600 159.961,211.420 160.400,211.200 160.400 C 210.980 160.400,210.800 160.749,210.800 161.176 C 210.800 161.603,210.620 162.064,210.400 162.200 C 210.180 162.336,210.000 162.887,210.000 163.424 C 210.000 163.961,209.820 164.400,209.600 164.400 C 209.380 164.400,209.200 164.749,209.200 165.176 C 209.200 165.603,209.020 166.064,208.800 166.200 C 208.580 166.336,208.400 166.887,208.400 167.424 C 208.400 167.961,208.220 168.400,208.000 168.400 C 207.780 168.400,207.600 168.749,207.600 169.176 C 207.600 169.603,207.420 170.064,207.200 170.200 C 206.980 170.336,206.800 170.887,206.800 171.424 C 206.800 171.961,206.620 172.400,206.400 172.400 C 206.180 172.400,206.000 172.749,206.000 173.176 C 206.000 173.603,205.820 174.064,205.600 174.200 C 205.380 174.336,205.200 174.887,205.200 175.424 C 205.200 175.961,205.020 176.400,204.800 176.400 C 204.580 176.400,204.400 176.749,204.400 177.176 C 204.400 177.603,204.220 178.064,204.000 178.200 C 203.780 178.336,203.600 178.887,203.600 179.424 C 203.600 179.961,203.420 180.400,203.200 180.400 C 202.980 180.400,202.800 180.749,202.800 181.176 C 202.800 181.603,202.620 182.064,202.400 182.200 C 202.180 182.336,202.000 182.887,202.000 183.424 C 202.000 183.961,201.820 184.400,201.600 184.400 C 201.380 184.400,201.200 184.749,201.200 185.176 C 201.200 185.603,201.020 186.064,200.800 186.200 C 200.580 186.336,200.400 186.887,200.400 187.424 C 200.400 187.961,200.220 188.400,200.000 188.400 C 199.780 188.400,199.600 188.749,199.600 189.176 C 199.600 189.603,199.420 190.064,199.200 190.200 C 198.980 190.336,198.800 190.887,198.800 191.424 C 198.800 191.961,198.620 192.400,198.400 192.400 C 198.180 192.400,198.000 192.749,198.000 193.176 C 198.000 193.603,197.820 194.064,197.600 194.200 C 197.380 194.336,197.200 194.887,197.200 195.424 C 197.200 195.961,197.020 196.400,196.800 196.400 C 196.580 196.400,196.400 196.760,196.400 197.200 C 196.400 197.640,196.220 198.000,196.000 198.000 C 195.780 198.000,195.600 198.540,195.600 199.200 C 195.600 199.860,195.420 200.400,195.200 200.400 C 194.980 200.400,194.800 200.760,194.800 201.200 C 194.800 201.640,194.620 202.000,194.400 202.000 C 194.180 202.000,194.000 202.540,194.000 203.200 C 194.000 203.860,193.820 204.400,193.600 204.400 C 193.380 204.400,193.200 204.760,193.200 205.200 C 193.200 205.640,193.020 206.000,192.800 206.000 C 192.580 206.000,192.400 206.540,192.400 207.200 C 192.400 207.860,192.220 208.400,192.000 208.400 C 191.780 208.400,191.600 208.760,191.600 209.200 C 191.600 209.640,191.420 210.000,191.200 210.000 C 190.980 210.000,190.800 210.540,190.800 211.200 C 190.800 211.860,190.620 212.400,190.400 212.400 C 190.180 212.400,190.000 212.760,190.000 213.200 C 190.000 213.640,189.820 214.000,189.600 214.000 C 189.380 214.000,189.200 214.439,189.200 214.976 C 189.200 215.513,189.020 216.064,188.800 216.200 C 188.580 216.336,188.400 216.797,188.400 217.224 C 188.400 217.651,188.220 218.000,188.000 218.000 C 187.780 218.000,187.600 218.439,187.600 218.976 C 187.600 219.513,187.420 220.064,187.200 220.200 C 186.980 220.336,186.800 220.797,186.800 221.224 C 186.800 221.651,186.620 222.000,186.400 222.000 C 186.180 222.000,186.000 222.439,186.000 222.976 C 186.000 223.513,185.820 224.064,185.600 224.200 C 185.380 224.336,185.200 224.797,185.200 225.224 C 185.200 225.651,185.020 226.000,184.800 226.000 C 184.580 226.000,184.400 226.439,184.400 226.976 C 184.400 227.513,184.220 228.064,184.000 228.200 C 183.780 228.336,183.600 228.797,183.600 229.224 C 183.600 229.651,183.420 230.000,183.200 230.000 C 182.980 230.000,182.800 230.439,182.800 230.976 C 182.800 231.513,182.620 232.064,182.400 232.200 C 182.180 232.336,182.000 232.797,182.000 233.224 C 182.000 233.651,181.820 234.000,181.600 234.000 C 181.380 234.000,181.200 234.439,181.200 234.976 C 181.200 235.513,181.020 236.064,180.800 236.200 C 180.580 236.336,180.400 236.797,180.400 237.224 C 180.400 237.651,180.220 238.000,180.000 238.000 C 179.780 238.000,179.600 238.439,179.600 238.976 C 179.600 239.513,179.420 240.064,179.200 240.200 C 178.980 240.336,178.800 240.797,178.800 241.224 C 178.800 241.651,178.620 242.000,178.400 242.000 C 178.180 242.000,178.000 242.349,178.000 242.776 C 178.000 243.203,177.820 243.664,177.600 243.800 C 177.380 243.936,177.200 244.487,177.200 245.024 C 177.200 245.561,177.020 246.000,176.800 246.000 C 176.580 246.000,176.400 246.349,176.400 246.776 C 176.400 247.203,176.220 247.664,176.000 247.800 C 175.780 247.936,175.600 248.487,175.600 249.024 C 175.600 249.561,175.420 250.000,175.200 250.000 C 174.980 250.000,174.800 250.349,174.800 250.776 C 174.800 251.203,174.620 251.664,174.400 251.800 C 174.180 251.936,174.000 252.487,174.000 253.024 C 174.000 253.561,173.820 254.000,173.600 254.000 C 173.380 254.000,173.200 254.349,173.200 254.776 C 173.200 255.203,173.020 255.664,172.800 255.800 C 172.580 255.936,172.400 256.487,172.400 257.024 C 172.400 257.561,172.220 258.000,172.000 258.000 C 171.780 258.000,171.600 258.349,171.600 258.776 C 171.600 259.203,171.420 259.664,171.200 259.800 C 170.980 259.936,170.800 260.487,170.800 261.024 C 170.800 261.561,170.620 262.000,170.400 262.000 C 170.180 262.000,170.000 262.349,170.000 262.776 C 170.000 263.203,169.820 263.664,169.600 263.800 C 169.380 263.936,169.200 264.487,169.200 265.024 C 169.200 265.561,169.020 266.000,168.800 266.000 C 168.580 266.000,168.400 266.349,168.400 266.776 C 168.400 267.203,168.220 267.664,168.000 267.800 C 167.780 267.936,167.600 268.487,167.600 269.024 C 167.600 269.561,167.420 270.000,167.200 270.000 C 166.980 270.000,166.800 270.349,166.800 270.776 C 166.800 271.203,166.620 271.664,166.400 271.800 C 166.180 271.936,166.000 272.487,166.000 273.024 C 166.000 273.561,165.820 274.000,165.600 274.000 C 165.380 274.000,165.200 274.349,165.200 274.776 C 165.200 275.203,165.020 275.664,164.800 275.800 C 164.580 275.936,164.400 276.487,164.400 277.024 C 164.400 277.561,164.220 278.000,164.000 278.000 C 163.780 278.000,163.600 278.349,163.600 278.776 C 163.600 279.203,163.420 279.664,163.200 279.800 C 162.980 279.936,162.800 280.487,162.800 281.024 C 162.800 281.561,162.620 282.000,162.400 282.000 C 162.180 282.000,162.000 282.360,162.000 282.800 C 162.000 283.240,161.820 283.600,161.600 283.600 C 161.380 283.600,161.200 284.140,161.200 284.800 C 161.200 285.460,161.020 286.000,160.800 286.000 C 160.580 286.000,160.400 286.360,160.400 286.800 C 160.400 287.240,160.220 287.600,160.000 287.600 C 159.780 287.600,159.600 288.140,159.600 288.800 C 159.600 289.460,159.420 290.000,159.200 290.000 C 158.980 290.000,158.800 290.360,158.800 290.800 C 158.800 291.240,158.620 291.600,158.400 291.600 C 158.180 291.600,158.000 292.140,158.000 292.800 C 158.000 293.460,157.801 294.000,157.557 294.000 C 157.314 294.000,157.221 294.277,157.350 294.615 C 157.485 294.965,157.331 295.328,156.993 295.458 C 156.658 295.587,156.400 296.189,156.400 296.843 C 156.400 297.479,156.220 298.000,156.000 298.000 C 155.780 298.000,155.600 298.345,155.600 298.767 C 155.600 299.188,155.437 299.593,155.239 299.667 C 154.888 299.796,154.655 302.928,154.752 306.225 C 154.779 307.141,155.105 308.196,155.500 308.646 C 155.885 309.085,156.395 309.794,156.633 310.222 C 156.871 310.650,157.456 311.178,157.933 311.395 C 158.410 311.612,158.800 311.927,158.800 312.095 C 158.800 312.263,160.780 312.400,163.200 312.400 C 165.867 312.400,167.600 312.242,167.600 312.000 C 167.600 311.780,167.894 311.600,168.253 311.600 C 168.984 311.600,170.799 309.675,170.800 308.900 C 170.800 308.625,170.980 308.400,171.200 308.400 C 171.420 308.400,171.600 308.040,171.600 307.600 C 171.600 307.160,171.780 306.800,172.000 306.800 C 172.220 306.800,172.400 306.361,172.400 305.824 C 172.400 305.287,172.580 304.736,172.800 304.600 C 173.020 304.464,173.200 304.003,173.200 303.576 C 173.200 303.149,173.380 302.800,173.600 302.800 C 173.820 302.800,174.000 302.361,174.000 301.824 C 174.000 301.287,174.180 300.736,174.400 300.600 C 174.620 300.464,174.800 300.003,174.800 299.576 C 174.800 299.149,174.980 298.800,175.200 298.800 C 175.420 298.800,175.600 298.451,175.600 298.024 C 175.600 297.597,175.780 297.136,176.000 297.000 C 176.220 296.864,176.400 296.313,176.400 295.776 C 176.400 295.239,176.580 294.800,176.800 294.800 C 177.020 294.800,177.200 294.451,177.200 294.024 C 177.200 293.597,177.380 293.136,177.600 293.000 C 177.820 292.864,178.000 292.313,178.000 291.776 C 178.000 291.239,178.180 290.800,178.400 290.800 C 178.620 290.800,178.800 290.451,178.800 290.024 C 178.800 289.597,178.980 289.136,179.200 289.000 C 179.420 288.864,179.600 288.313,179.600 287.776 C 179.600 287.239,179.780 286.800,180.000 286.800 C 180.220 286.800,180.400 286.451,180.400 286.024 C 180.400 285.597,180.580 285.136,180.800 285.000 C 181.020 284.864,181.200 284.313,181.200 283.776 C 181.200 283.239,181.380 282.800,181.600 282.800 C 181.820 282.800,182.000 282.451,182.000 282.024 C 182.000 281.597,182.180 281.136,182.400 281.000 C 182.620 280.864,182.800 280.313,182.800 279.776 C 182.800 279.239,182.980 278.800,183.200 278.800 C 183.420 278.800,183.600 278.451,183.600 278.024 C 183.600 277.597,183.780 277.136,184.000 277.000 C 184.220 276.864,184.400 276.313,184.400 275.776 C 184.400 275.239,184.580 274.800,184.800 274.800 C 185.020 274.800,185.200 274.451,185.200 274.024 C 185.200 273.597,185.380 273.136,185.600 273.000 C 185.820 272.864,186.000 272.313,186.000 271.776 C 186.000 271.239,186.180 270.800,186.400 270.800 C 186.620 270.800,186.800 270.451,186.800 270.024 C 186.800 269.597,186.980 269.136,187.200 269.000 C 187.420 268.864,187.600 268.313,187.600 267.776 C 187.600 267.239,187.780 266.800,188.000 266.800 C 188.220 266.800,188.400 266.451,188.400 266.024 C 188.400 265.597,188.580 265.136,188.800 265.000 C 189.020 264.864,189.200 264.313,189.200 263.776 C 189.200 263.239,189.380 262.800,189.600 262.800 C 189.820 262.800,190.000 262.451,190.000 262.024 C 190.000 261.597,190.180 261.136,190.400 261.000 C 190.620 260.864,190.800 260.313,190.800 259.776 C 190.800 259.239,190.980 258.800,191.200 258.800 C 191.420 258.800,191.600 258.451,191.600 258.024 C 191.600 257.597,191.780 257.136,192.000 257.000 C 192.220 256.864,192.400 256.313,192.400 255.776 C 192.400 255.239,192.580 254.800,192.800 254.800 C 193.020 254.800,193.200 254.451,193.200 254.024 C 193.200 253.597,193.380 253.136,193.600 253.000 C 193.820 252.864,194.000 252.313,194.000 251.776 C 194.000 251.239,194.180 250.800,194.400 250.800 C 194.620 250.800,194.800 250.440,194.800 250.000 C 194.800 249.560,194.980 249.200,195.200 249.200 C 195.420 249.200,195.600 248.660,195.600 248.000 C 195.600 247.340,195.780 246.800,196.000 246.800 C 196.220 246.800,196.400 246.440,196.400 246.000 C 196.400 245.560,196.580 245.200,196.800 245.200 C 197.020 245.200,197.200 244.660,197.200 244.000 C 197.200 243.340,197.380 242.800,197.600 242.800 C 197.820 242.800,198.000 242.440,198.000 242.000 C 198.000 241.560,198.180 241.200,198.400 241.200 C 198.620 241.200,198.800 240.660,198.800 240.000 C 198.800 239.340,198.980 238.800,199.200 238.800 C 199.420 238.800,199.600 238.440,199.600 238.000 C 199.600 237.560,199.780 237.200,200.000 237.200 C 200.220 237.200,200.400 236.660,200.400 236.000 C 200.400 235.340,200.580 234.800,200.800 234.800 C 201.020 234.800,201.200 234.440,201.200 234.000 C 201.200 233.560,201.380 233.200,201.600 233.200 C 201.820 233.200,202.000 232.660,202.000 232.000 C 202.000 231.340,202.180 230.800,202.400 230.800 C 202.620 230.800,202.800 230.440,202.800 230.000 C 202.800 229.560,202.980 229.200,203.200 229.200 C 203.420 229.200,203.600 228.660,203.600 228.000 C 203.600 227.340,203.780 226.800,204.000 226.800 C 204.220 226.800,204.400 226.440,204.400 226.000 C 204.400 225.560,204.580 225.200,204.800 225.200 C 205.020 225.200,205.200 224.780,205.200 224.267 C 205.200 223.753,205.325 223.208,205.478 223.055 C 205.631 222.902,205.801 222.470,205.856 222.096 C 205.911 221.721,206.146 221.351,206.378 221.274 C 206.610 221.197,206.800 220.709,206.800 220.190 C 206.800 219.672,206.980 219.136,207.200 219.000 C 207.420 218.864,207.600 218.403,207.600 217.976 C 207.600 217.549,207.780 217.200,208.000 217.200 C 208.220 217.200,208.400 216.761,208.400 216.224 C 208.400 215.687,208.580 215.136,208.800 215.000 C 209.020 214.864,209.200 214.403,209.200 213.976 C 209.200 213.549,209.380 213.200,209.600 213.200 C 209.820 213.200,210.000 212.761,210.000 212.224 C 210.000 211.687,210.180 211.136,210.400 211.000 C 210.620 210.864,210.800 210.403,210.800 209.976 C 210.800 209.549,210.980 209.200,211.200 209.200 C 211.420 209.200,211.600 208.761,211.600 208.224 C 211.600 207.687,211.780 207.136,212.000 207.000 C 212.220 206.864,212.400 206.403,212.400 205.976 C 212.400 205.549,212.580 205.200,212.800 205.200 C 213.020 205.200,213.200 204.761,213.200 204.224 C 213.200 203.687,213.380 203.136,213.600 203.000 C 213.820 202.864,214.000 202.403,214.000 201.976 C 214.000 201.549,214.180 201.200,214.400 201.200 C 214.620 201.200,214.800 200.761,214.800 200.224 C 214.800 199.687,214.980 199.136,215.200 199.000 C 215.420 198.864,215.600 198.403,215.600 197.976 C 215.600 197.549,215.780 197.200,216.000 197.200 C 216.220 197.200,216.400 196.761,216.400 196.224 C 216.400 195.687,216.580 195.136,216.800 195.000 C 217.020 194.864,217.200 194.403,217.200 193.976 C 217.200 193.549,217.380 193.200,217.600 193.200 C 217.820 193.200,218.000 192.761,218.000 192.224 C 218.000 191.687,218.180 191.136,218.400 191.000 C 218.620 190.864,218.800 190.403,218.800 189.976 C 218.800 189.549,218.980 189.200,219.200 189.200 C 219.420 189.200,219.600 188.851,219.600 188.424 C 219.600 187.997,219.780 187.536,220.000 187.400 C 220.220 187.264,220.400 186.713,220.400 186.176 C 220.400 185.639,220.580 185.200,220.800 185.200 C 221.020 185.200,221.200 184.660,221.200 184.000 C 221.200 183.340,221.380 182.800,221.600 182.800 C 221.820 182.800,222.000 182.440,222.000 182.000 C 222.000 181.560,222.180 181.200,222.400 181.200 C 222.620 181.200,222.800 180.851,222.800 180.424 C 222.800 179.997,222.980 179.536,223.200 179.400 C 223.420 179.264,223.600 178.713,223.600 178.176 C 223.600 177.639,223.780 177.200,224.000 177.200 C 224.220 177.200,224.400 176.851,224.400 176.424 C 224.400 175.997,224.580 175.536,224.800 175.400 C 225.020 175.264,225.200 174.713,225.200 174.176 C 225.200 173.639,225.380 173.200,225.600 173.200 C 225.820 173.200,226.000 172.851,226.000 172.424 C 226.000 171.997,226.180 171.536,226.400 171.400 C 226.620 171.264,226.800 170.713,226.800 170.176 C 226.800 169.639,226.980 169.200,227.200 169.200 C 227.420 169.200,227.600 168.851,227.600 168.424 C 227.600 167.997,227.780 167.536,228.000 167.400 C 228.220 167.264,228.400 166.713,228.400 166.176 C 228.400 165.639,228.580 165.200,228.800 165.200 C 229.020 165.200,229.200 164.851,229.200 164.424 C 229.200 163.997,229.380 163.536,229.600 163.400 C 229.820 163.264,230.000 162.713,230.000 162.176 C 230.000 161.639,230.180 161.200,230.400 161.200 C 230.620 161.200,230.800 160.851,230.800 160.424 C 230.800 159.997,230.980 159.536,231.200 159.400 C 231.420 159.264,231.600 158.713,231.600 158.176 C 231.600 157.639,231.780 157.200,232.000 157.200 C 232.220 157.200,232.400 156.851,232.400 156.424 C 232.400 155.997,232.580 155.536,232.800 155.400 C 233.020 155.264,233.200 154.713,233.200 154.176 C 233.200 153.639,233.380 153.200,233.600 153.200 C 233.820 153.200,234.000 152.851,234.000 152.424 C 234.000 151.997,234.180 151.536,234.400 151.400 C 234.620 151.264,234.800 150.713,234.800 150.176 C 234.800 149.639,234.980 149.200,235.200 149.200 C 235.420 149.200,235.600 148.870,235.600 148.467 C 235.600 148.063,235.725 147.609,235.877 147.456 C 236.029 147.304,236.215 146.779,236.289 146.290 C 236.363 145.800,236.598 145.340,236.812 145.267 C 237.025 145.193,237.200 144.799,237.200 144.390 C 237.200 143.982,237.380 143.536,237.600 143.400 C 237.820 143.264,238.000 142.713,238.000 142.176 C 238.000 141.639,238.180 141.200,238.400 141.200 C 238.620 141.200,238.800 140.840,238.800 140.400 C 238.800 139.960,238.980 139.600,239.200 139.600 C 239.420 139.600,239.600 139.060,239.600 138.400 C 239.600 137.740,239.780 137.200,240.000 137.200 C 240.220 137.200,240.400 136.840,240.400 136.400 C 240.400 135.960,240.580 135.600,240.800 135.600 C 241.020 135.600,241.200 135.060,241.200 134.400 C 241.200 133.740,241.380 133.200,241.600 133.200 C 241.820 133.200,242.000 132.840,242.000 132.400 C 242.000 131.960,242.180 131.600,242.400 131.600 C 242.620 131.600,242.800 131.060,242.800 130.400 C 242.800 129.740,242.980 129.200,243.200 129.200 C 243.420 129.200,243.600 128.840,243.600 128.400 C 243.600 127.960,243.780 127.600,244.000 127.600 C 244.220 127.600,244.400 127.060,244.400 126.400 C 244.400 125.740,244.599 125.200,244.843 125.200 C 245.086 125.200,245.179 124.923,245.050 124.585 C 244.915 124.235,245.069 123.872,245.407 123.742 C 245.742 123.613,246.000 123.011,246.000 122.357 C 246.000 121.721,246.180 121.200,246.400 121.200 C 246.620 121.200,246.800 120.840,246.800 120.400 C 246.800 119.960,246.980 119.600,247.200 119.600 C 247.420 119.600,247.600 119.161,247.600 118.624 C 247.600 118.087,247.780 117.536,248.000 117.400 C 248.220 117.264,248.400 116.803,248.400 116.376 C 248.400 115.949,248.580 115.600,248.800 115.600 C 249.020 115.600,249.200 115.161,249.200 114.624 C 249.200 114.087,249.380 113.536,249.600 113.400 C 249.820 113.264,250.000 112.803,250.000 112.376 C 250.000 111.949,250.180 111.600,250.400 111.600 C 250.620 111.600,250.800 111.161,250.800 110.624 C 250.800 110.087,250.980 109.536,251.200 109.400 C 251.420 109.264,251.600 108.803,251.600 108.376 C 251.600 107.949,251.780 107.600,252.000 107.600 C 252.220 107.600,252.400 107.161,252.400 106.624 C 252.400 106.087,252.580 105.536,252.800 105.400 C 253.020 105.264,253.200 104.803,253.200 104.376 C 253.200 103.949,253.380 103.600,253.600 103.600 C 253.820 103.600,254.000 103.161,254.000 102.624 C 254.000 102.087,254.180 101.536,254.400 101.400 C 254.620 101.264,254.800 100.479,254.800 99.656 C 254.800 98.833,255.016 97.944,255.280 97.680 C 255.653 97.307,255.653 97.093,255.280 96.720 C 255.016 96.456,254.800 95.556,254.800 94.720 C 254.800 93.884,254.620 93.200,254.400 93.200 C 254.180 93.200,254.000 92.975,254.000 92.700 C 253.999 91.925,252.184 90.000,251.453 90.000 C 251.094 90.000,250.800 89.820,250.800 89.600 C 250.800 89.380,250.451 89.200,250.024 89.200 C 249.597 89.200,249.152 89.046,249.036 88.858 C 248.725 88.355,243.600 88.287,243.600 88.786 M129.200 136.000 C 129.200 136.220,128.930 136.400,128.599 136.400 C 127.657 136.400,64.400 199.852,64.400 200.797 C 64.400 201.742,126.861 264.400,127.802 264.400 C 128.131 264.400,128.400 264.580,128.400 264.800 C 128.400 265.020,128.749 265.200,129.176 265.200 C 129.603 265.200,130.064 265.380,130.200 265.600 C 130.336 265.820,131.607 266.000,133.024 266.000 C 134.475 266.000,135.600 265.825,135.600 265.600 C 135.600 265.380,136.036 265.200,136.568 265.200 C 137.878 265.200,141.200 261.878,141.200 260.568 C 141.200 260.036,141.380 259.600,141.600 259.600 C 141.825 259.600,142.000 258.475,142.000 257.024 C 142.000 255.607,141.820 254.336,141.600 254.200 C 141.380 254.064,141.200 253.603,141.200 253.176 C 141.200 252.749,141.020 252.400,140.800 252.400 C 140.580 252.400,140.400 252.132,140.400 251.804 C 140.400 251.476,129.060 239.866,115.200 226.003 C 101.340 212.141,90.000 200.619,90.000 200.400 C 90.000 200.181,101.520 188.479,115.600 174.397 C 135.760 154.234,141.200 148.581,141.200 147.796 C 141.200 147.248,141.380 146.800,141.600 146.800 C 141.825 146.800,142.000 145.675,142.000 144.224 C 142.000 142.807,141.820 141.536,141.600 141.400 C 141.380 141.264,141.200 140.803,141.200 140.376 C 141.200 139.949,141.064 139.600,140.898 139.600 C 140.731 139.600,140.356 139.060,140.064 138.400 C 139.772 137.740,139.228 137.200,138.855 137.200 C 138.482 137.200,137.917 136.840,137.600 136.400 C 136.961 135.514,129.200 135.144,129.200 136.000 M262.400 136.400 C 262.083 136.840,261.580 137.200,261.283 137.200 C 260.551 137.200,259.600 138.200,259.600 138.971 C 259.600 139.317,259.420 139.600,259.200 139.600 C 258.980 139.600,258.800 139.960,258.800 140.400 C 258.800 140.840,258.620 141.200,258.400 141.200 C 258.171 141.200,258.000 142.400,258.000 144.000 C 258.000 145.600,258.171 146.800,258.400 146.800 C 258.620 146.800,258.800 147.251,258.800 147.802 C 258.800 148.595,264.154 154.158,284.400 174.400 C 298.480 188.477,310.000 200.177,310.000 200.400 C 310.000 200.623,298.660 212.143,284.800 226.000 C 270.940 239.857,259.600 251.466,259.600 251.798 C 259.600 252.129,259.420 252.400,259.200 252.400 C 258.980 252.400,258.800 252.760,258.800 253.200 C 258.800 253.640,258.620 254.000,258.400 254.000 C 258.171 254.000,258.000 255.200,258.000 256.800 C 258.000 258.400,258.171 259.600,258.400 259.600 C 258.620 259.600,258.800 260.068,258.800 260.640 C 258.800 261.968,262.105 265.200,263.464 265.200 C 263.979 265.200,264.400 265.343,264.400 265.518 C 264.400 265.999,269.498 266.089,269.792 265.613 C 269.932 265.386,270.357 265.200,270.735 265.200 C 271.114 265.200,271.683 264.840,272.000 264.400 C 272.317 263.960,272.811 263.600,273.098 263.600 C 273.973 263.600,335.600 201.659,335.600 200.780 C 335.600 199.971,274.371 138.381,273.070 137.882 C 272.702 137.741,272.400 137.349,272.400 137.013 C 272.400 136.667,272.052 136.400,271.600 136.400 C 271.160 136.400,270.800 136.220,270.800 136.000 C 270.800 135.144,263.039 135.514,262.400 136.400 " stroke="none" fill="#346ce4" fill-rule="evenodd"></path><path id="path1" d="" stroke="none" fill="#386ce4" fill-rule="evenodd"></path><path id="path2" d="" stroke="none" fill="#386ce4" fill-rule="evenodd"></path><path id="path3" d="" stroke="none" fill="#386ce4" fill-rule="evenodd"></path><path id="path4" d="" stroke="none" fill="#386ce4" fill-rule="evenodd"></path></g></svg>