<svg id="svg" version="1.1" xmlns="http://www.w3.org/2000/svg" xmlns:xlink="http://www.w3.org/1999/xlink" width="400" height="400" viewBox="0, 0, 400,400"><g id="svgg"><path id="path0" d="M267.600 85.594 C 267.600 85.817,266.880 86.000,266.000 86.000 C 265.120 86.000,264.400 86.180,264.400 86.400 C 264.400 86.620,264.040 86.800,263.600 86.800 C 263.160 86.800,262.800 87.064,262.800 87.387 C 262.800 87.714,262.562 87.884,262.265 87.770 C 261.607 87.517,256.400 92.488,256.400 93.369 C 256.400 93.716,256.220 94.000,256.000 94.000 C 255.780 94.000,255.600 94.278,255.600 94.617 C 255.600 94.956,255.240 95.620,254.800 96.092 C 254.295 96.635,254.000 97.504,254.000 98.452 C 254.000 99.277,253.813 100.068,253.585 100.210 C 253.080 100.522,253.142 107.600,253.650 107.600 C 253.842 107.600,254.000 108.219,254.000 108.976 C 254.000 109.733,254.180 110.464,254.400 110.600 C 254.620 110.736,254.800 111.197,254.800 111.624 C 254.800 112.051,254.980 112.400,255.200 112.400 C 255.420 112.400,255.600 112.676,255.600 113.013 C 255.600 113.351,256.140 114.155,256.800 114.800 C 257.460 115.445,258.000 116.219,258.000 116.519 C 258.000 116.819,258.495 117.319,259.100 117.630 C 259.705 117.940,260.491 118.511,260.847 118.897 C 261.203 119.284,261.788 119.600,262.147 119.600 C 262.506 119.600,262.800 119.780,262.800 120.000 C 262.800 120.220,263.160 120.400,263.600 120.400 C 264.040 120.400,264.400 120.580,264.400 120.800 C 264.400 121.020,264.940 121.200,265.600 121.200 C 266.260 121.200,266.800 121.380,266.800 121.600 C 266.800 121.846,268.800 122.000,272.000 122.000 C 275.200 122.000,277.200 121.846,277.200 121.600 C 277.200 121.380,277.740 121.200,278.400 121.200 C 279.060 121.200,279.600 121.020,279.600 120.800 C 279.600 120.580,279.960 120.400,280.400 120.400 C 280.840 120.400,281.200 120.220,281.200 120.000 C 281.200 119.780,281.473 119.600,281.807 119.600 C 282.599 119.600,287.600 114.599,287.600 113.807 C 287.600 113.473,287.780 113.200,288.000 113.200 C 288.220 113.200,288.400 112.840,288.400 112.400 C 288.400 111.960,288.580 111.600,288.800 111.600 C 289.020 111.600,289.200 111.251,289.200 110.824 C 289.200 110.397,289.380 109.936,289.600 109.800 C 289.820 109.664,290.000 108.573,290.000 107.376 C 290.000 106.179,290.180 105.200,290.400 105.200 C 290.620 105.200,290.800 104.671,290.800 104.024 C 290.800 103.377,290.620 102.736,290.400 102.600 C 290.180 102.464,290.000 101.373,290.000 100.176 C 290.000 98.979,289.820 98.000,289.600 98.000 C 289.380 98.000,289.200 97.460,289.200 96.800 C 289.200 96.140,289.020 95.600,288.800 95.600 C 288.580 95.600,288.400 95.364,288.400 95.075 C 288.400 94.787,288.040 94.164,287.600 93.692 C 287.160 93.220,286.800 92.660,286.800 92.448 C 286.800 91.843,283.201 88.400,282.568 88.400 C 282.256 88.400,282.000 88.254,282.000 88.075 C 282.000 87.710,279.219 86.544,278.720 86.700 C 278.544 86.755,278.400 86.620,278.400 86.400 C 278.400 86.180,277.950 86.000,277.400 86.000 C 276.850 86.000,276.400 85.836,276.400 85.636 C 276.400 85.436,274.420 85.253,272.000 85.230 C 269.265 85.204,267.600 85.342,267.600 85.594 M70.200 110.400 C 70.064 110.620,69.423 110.800,68.776 110.800 C 68.129 110.800,67.600 110.980,67.600 111.200 C 67.600 111.420,67.240 111.600,66.800 111.600 C 66.360 111.600,66.000 111.780,66.000 112.000 C 66.000 112.220,65.740 112.400,65.422 112.400 C 64.670 112.400,59.600 117.470,59.600 118.222 C 59.600 118.540,59.420 118.800,59.200 118.800 C 58.980 118.800,58.800 119.160,58.800 119.600 C 58.800 120.040,58.620 120.400,58.400 120.400 C 58.180 120.400,58.000 120.929,58.000 121.576 C 58.000 122.223,57.820 122.864,57.600 123.000 C 57.367 123.144,57.200 125.396,57.200 128.400 C 57.200 131.404,57.367 133.656,57.600 133.800 C 57.820 133.936,58.004 134.442,58.009 134.924 C 58.014 135.406,58.370 136.250,58.800 136.800 C 59.230 137.350,59.586 138.025,59.591 138.300 C 59.596 138.575,59.780 138.800,60.000 138.800 C 60.220 138.800,60.400 139.056,60.400 139.368 C 60.400 140.108,63.892 143.600,64.632 143.600 C 64.944 143.600,65.200 143.780,65.200 144.000 C 65.200 144.220,65.560 144.400,66.000 144.400 C 66.440 144.400,66.800 144.580,66.800 144.800 C 66.800 145.020,67.160 145.200,67.600 145.200 C 68.040 145.200,68.400 145.380,68.400 145.600 C 68.400 145.820,68.940 146.000,69.600 146.000 C 70.260 146.000,70.800 146.164,70.800 146.364 C 70.800 146.875,79.882 146.915,80.196 146.406 C 80.334 146.183,80.977 146.000,81.624 146.000 C 82.271 146.000,82.800 145.820,82.800 145.600 C 82.800 145.380,83.160 145.200,83.600 145.200 C 84.040 145.200,84.400 145.020,84.400 144.800 C 84.400 144.580,84.694 144.400,85.053 144.400 C 85.412 144.400,85.997 144.084,86.353 143.697 C 86.709 143.311,87.495 142.740,88.100 142.430 C 88.705 142.119,89.200 141.652,89.200 141.392 C 89.200 141.132,89.740 140.354,90.400 139.663 C 91.060 138.972,91.600 138.136,91.600 137.804 C 91.600 137.472,91.780 137.200,92.000 137.200 C 92.220 137.200,92.400 136.840,92.400 136.400 C 92.400 135.960,92.580 135.600,92.800 135.600 C 93.020 135.600,93.200 135.060,93.200 134.400 C 93.200 133.740,93.380 133.200,93.600 133.200 C 93.844 133.200,94.000 131.333,94.000 128.400 C 94.000 125.467,93.844 123.600,93.600 123.600 C 93.380 123.600,93.200 123.167,93.200 122.638 C 93.200 121.670,91.659 118.315,91.100 118.067 C 90.935 117.993,90.800 117.693,90.800 117.398 C 90.800 116.683,87.289 113.200,86.568 113.200 C 86.256 113.200,86.000 113.020,86.000 112.800 C 86.000 112.580,85.775 112.396,85.500 112.391 C 85.225 112.386,84.550 112.030,84.000 111.600 C 83.450 111.170,82.415 110.814,81.700 110.809 C 80.985 110.804,80.400 110.620,80.400 110.400 C 80.400 110.155,78.475 110.000,75.424 110.000 C 72.537 110.000,70.343 110.168,70.200 110.400 M247.660 117.242 C 246.924 117.674,245.450 118.922,244.386 120.014 C 243.322 121.106,242.276 122.000,242.061 122.000 C 241.846 122.000,240.573 123.080,239.232 124.400 C 237.892 125.720,236.606 126.800,236.375 126.800 C 236.144 126.800,234.896 127.880,233.600 129.200 C 232.304 130.520,230.945 131.600,230.579 131.600 C 230.143 131.600,229.996 131.813,230.153 132.221 C 230.291 132.581,230.223 132.738,229.990 132.594 C 229.769 132.458,228.886 133.078,228.026 133.973 C 227.166 134.868,226.284 135.600,226.066 135.600 C 225.848 135.600,224.573 136.680,223.232 138.000 C 221.892 139.320,220.632 140.400,220.432 140.400 C 220.233 140.400,218.973 141.480,217.632 142.800 C 216.292 144.120,215.032 145.200,214.832 145.200 C 214.633 145.200,213.373 146.280,212.032 147.600 C 210.692 148.920,209.430 150.000,209.228 150.000 C 209.026 150.000,207.586 151.260,206.028 152.800 C 204.469 154.340,203.031 155.600,202.832 155.600 C 202.633 155.600,201.373 156.680,200.032 158.000 C 198.692 159.320,197.404 160.400,197.171 160.400 C 196.939 160.400,195.871 161.300,194.800 162.400 C 193.729 163.500,192.678 164.400,192.466 164.400 C 192.026 164.400,189.200 167.134,189.200 167.559 C 189.200 167.713,190.460 169.121,192.000 170.689 C 193.540 172.256,194.800 173.823,194.800 174.170 C 194.800 175.837,197.543 174.904,200.000 172.400 C 201.296 171.080,202.530 170.000,202.743 170.000 C 202.956 170.000,204.227 168.920,205.568 167.600 C 206.908 166.280,208.196 165.200,208.429 165.200 C 208.661 165.200,209.729 164.300,210.800 163.200 C 211.871 162.100,212.924 161.200,213.139 161.200 C 213.354 161.200,214.627 160.120,215.968 158.800 C 217.308 157.480,218.568 156.400,218.768 156.400 C 218.967 156.400,220.227 155.320,221.568 154.000 C 222.908 152.680,224.293 151.600,224.645 151.600 C 225.060 151.600,225.202 151.381,225.047 150.979 C 224.909 150.619,224.977 150.462,225.210 150.606 C 225.431 150.742,226.314 150.122,227.174 149.227 C 228.034 148.332,228.916 147.600,229.134 147.600 C 229.352 147.600,230.627 146.520,231.968 145.200 C 233.308 143.880,234.568 142.800,234.768 142.800 C 234.967 142.800,236.227 141.720,237.568 140.400 C 238.908 139.080,240.196 138.000,240.429 138.000 C 240.661 138.000,241.729 137.100,242.800 136.000 C 243.871 134.900,244.924 134.000,245.139 134.000 C 245.354 134.000,246.627 132.920,247.968 131.600 C 249.308 130.280,250.560 129.200,250.749 129.200 C 251.279 129.200,255.600 124.930,255.600 124.406 C 255.600 123.827,254.818 123.038,253.900 122.690 C 253.515 122.544,253.200 122.189,253.200 121.901 C 253.200 121.613,252.840 121.117,252.400 120.800 C 251.960 120.483,251.600 120.027,251.600 119.787 C 251.600 119.547,251.276 119.002,250.880 118.575 C 250.484 118.149,250.039 117.485,249.892 117.100 C 249.564 116.239,249.348 116.253,247.660 117.242 M280.400 128.000 C 280.400 128.220,279.860 128.400,279.200 128.400 C 278.540 128.400,278.000 128.572,278.000 128.782 C 278.000 128.992,276.785 129.217,275.300 129.282 L 272.600 129.400 272.482 132.100 C 272.408 133.787,272.520 134.800,272.782 134.800 C 273.017 134.800,273.200 135.675,273.200 136.800 C 273.200 137.900,273.380 138.800,273.600 138.800 C 273.820 138.800,274.000 139.700,274.000 140.800 C 274.000 141.900,274.180 142.800,274.400 142.800 C 274.620 142.800,274.800 143.700,274.800 144.800 C 274.800 145.900,274.980 146.800,275.200 146.800 C 275.420 146.800,275.600 147.700,275.600 148.800 C 275.600 149.900,275.780 150.800,276.000 150.800 C 276.220 150.800,276.400 151.685,276.400 152.767 C 276.400 153.848,276.577 154.793,276.794 154.867 C 277.010 154.940,277.219 155.855,277.258 156.900 C 277.298 157.945,277.481 158.800,277.665 158.800 C 277.849 158.800,278.000 159.700,278.000 160.800 C 278.000 161.900,278.180 162.800,278.400 162.800 C 278.620 162.800,278.800 163.700,278.800 164.800 C 278.800 165.900,278.980 166.800,279.200 166.800 C 279.420 166.800,279.600 167.700,279.600 168.800 C 279.600 169.900,279.780 170.800,280.000 170.800 C 280.220 170.800,280.400 171.700,280.400 172.800 C 280.400 173.900,280.580 174.800,280.800 174.800 C 281.020 174.800,281.200 175.779,281.200 176.976 C 281.200 178.173,281.380 179.264,281.600 179.400 C 281.820 179.536,282.000 180.436,282.000 181.400 C 282.000 182.364,282.180 183.264,282.400 183.400 C 282.620 183.536,282.800 184.436,282.800 185.400 C 282.800 186.364,282.980 187.264,283.200 187.400 C 284.747 188.356,280.187 195.600,278.038 195.600 C 277.831 195.600,276.386 196.860,274.828 198.400 C 273.269 199.940,271.829 201.200,271.628 201.200 C 271.426 201.200,269.986 202.460,268.428 204.000 C 266.869 205.540,265.440 206.800,265.251 206.800 C 264.735 206.800,260.400 211.064,260.400 211.571 C 260.400 212.149,267.056 218.800,267.634 218.800 C 267.879 218.800,268.583 218.260,269.200 217.600 C 269.817 216.940,270.505 216.400,270.730 216.400 C 270.955 216.400,272.414 215.140,273.972 213.600 C 275.531 212.060,276.971 210.800,277.172 210.800 C 277.374 210.800,278.814 209.540,280.372 208.000 C 281.931 206.460,283.339 205.200,283.503 205.200 C 283.666 205.199,284.318 204.753,284.952 204.208 C 286.410 202.954,286.800 203.206,286.800 205.400 C 286.800 206.364,286.980 207.264,287.200 207.400 C 287.420 207.536,287.600 208.411,287.600 209.344 C 287.600 210.277,287.786 211.226,288.013 211.453 C 288.241 211.681,288.443 212.707,288.464 213.733 C 288.485 214.760,288.659 215.600,288.851 215.600 C 289.043 215.600,289.200 216.500,289.200 217.600 C 289.200 218.700,289.380 219.600,289.600 219.600 C 289.820 219.600,290.000 220.500,290.000 221.600 C 290.000 222.700,290.180 223.600,290.400 223.600 C 290.620 223.600,290.800 224.500,290.800 225.600 C 290.800 226.700,290.980 227.600,291.200 227.600 C 291.420 227.600,291.600 228.500,291.600 229.600 C 291.600 230.700,291.780 231.600,292.000 231.600 C 292.220 231.600,292.400 232.500,292.400 233.600 C 292.400 234.700,292.580 235.600,292.800 235.600 C 293.020 235.600,293.200 236.500,293.200 237.600 C 293.200 238.700,293.380 239.600,293.600 239.600 C 293.820 239.600,294.000 240.423,294.000 241.429 C 294.000 242.480,294.243 243.500,294.571 243.829 C 295.218 244.475,298.000 244.614,298.000 244.000 C 298.000 243.780,298.594 243.600,299.320 243.600 C 300.046 243.600,300.811 243.429,301.021 243.219 C 301.230 243.010,302.048 242.795,302.838 242.742 L 304.274 242.645 304.358 240.322 C 304.409 238.911,304.277 238.000,304.021 238.000 C 303.778 238.000,303.600 237.080,303.600 235.824 C 303.600 234.627,303.420 233.536,303.200 233.400 C 302.980 233.264,302.800 232.364,302.800 231.400 C 302.800 230.436,302.620 229.536,302.400 229.400 C 302.180 229.264,302.000 228.364,302.000 227.400 C 302.000 226.436,301.820 225.536,301.600 225.400 C 301.380 225.264,301.200 224.364,301.200 223.400 C 301.200 222.436,301.020 221.536,300.800 221.400 C 300.580 221.264,300.400 220.263,300.400 219.176 C 300.400 218.089,300.220 217.200,300.000 217.200 C 299.780 217.200,299.600 216.300,299.600 215.200 C 299.600 214.100,299.420 213.200,299.200 213.200 C 298.980 213.200,298.800 212.300,298.800 211.200 C 298.800 210.100,298.620 209.200,298.400 209.200 C 298.180 209.200,298.000 208.315,298.000 207.233 C 298.000 206.152,297.809 205.203,297.576 205.125 C 297.343 205.048,297.142 204.178,297.130 203.192 C 297.118 202.206,296.942 201.296,296.740 201.168 C 296.539 201.041,296.357 200.096,296.336 199.068 C 296.315 198.041,296.141 197.200,295.949 197.200 C 295.757 197.200,295.600 196.746,295.600 196.191 C 295.600 195.204,299.486 190.800,300.356 190.800 C 300.562 190.800,301.827 189.720,303.168 188.400 C 304.508 187.080,305.749 186.000,305.924 186.000 C 306.662 186.000,309.200 183.229,309.200 182.424 C 309.200 181.898,308.294 180.658,306.900 179.278 C 305.635 178.025,304.345 176.505,304.032 175.900 C 303.495 174.858,302.000 174.343,302.000 175.200 C 302.000 175.420,301.759 175.600,301.464 175.600 C 300.801 175.600,297.447 178.743,297.088 179.700 C 296.943 180.085,296.549 180.400,296.213 180.400 C 295.876 180.400,295.599 180.535,295.597 180.700 C 295.595 180.865,295.125 181.218,294.552 181.484 C 293.098 182.159,292.400 181.363,292.400 179.029 C 292.400 178.023,292.220 177.200,292.000 177.200 C 291.780 177.200,291.600 176.300,291.600 175.200 C 291.600 174.100,291.420 173.200,291.200 173.200 C 290.980 173.200,290.800 172.300,290.800 171.200 C 290.800 170.100,290.620 169.200,290.400 169.200 C 290.180 169.200,290.000 168.300,290.000 167.200 C 290.000 166.100,289.820 165.200,289.600 165.200 C 289.380 165.200,289.200 164.300,289.200 163.200 C 289.200 162.100,289.020 161.200,288.800 161.200 C 288.580 161.200,288.400 160.300,288.400 159.200 C 288.400 158.100,288.220 157.200,288.000 157.200 C 287.780 157.200,287.600 156.300,287.600 155.200 C 287.600 154.100,287.420 153.200,287.200 153.200 C 286.980 153.200,286.800 152.300,286.800 151.200 C 286.800 150.100,286.620 149.200,286.400 149.200 C 286.180 149.200,286.000 148.300,286.000 147.200 C 286.000 146.100,285.820 145.200,285.600 145.200 C 285.380 145.200,285.200 144.300,285.200 143.200 C 285.200 142.100,285.020 141.200,284.800 141.200 C 284.580 141.200,284.400 140.300,284.400 139.200 C 284.400 138.100,284.220 137.200,284.000 137.200 C 283.780 137.200,283.600 136.300,283.600 135.200 C 283.600 134.100,283.420 133.200,283.200 133.200 C 282.980 133.200,282.800 132.300,282.800 131.200 C 282.800 130.100,282.620 129.200,282.400 129.200 C 282.180 129.200,282.000 128.840,282.000 128.400 C 282.000 127.867,281.733 127.600,281.200 127.600 C 280.760 127.600,280.400 127.780,280.400 128.000 M99.300 138.598 C 99.025 138.911,98.800 139.444,98.800 139.783 C 98.800 140.122,98.650 140.400,98.468 140.400 C 98.285 140.400,97.880 140.892,97.568 141.493 C 97.255 142.094,96.505 143.111,95.900 143.752 C 95.295 144.394,94.800 145.342,94.800 145.859 C 94.800 146.455,94.565 146.800,94.160 146.800 C 93.809 146.800,93.017 147.340,92.400 148.000 C 91.783 148.660,91.031 149.200,90.728 149.200 C 90.425 149.200,89.917 149.560,89.600 150.000 C 89.283 150.440,88.703 150.800,88.312 150.800 C 87.920 150.800,87.600 150.980,87.600 151.200 C 87.600 151.420,87.240 151.600,86.800 151.600 C 86.267 151.600,86.000 151.867,86.000 152.400 C 86.000 152.840,86.180 153.200,86.400 153.200 C 86.620 153.200,86.800 153.520,86.800 153.912 C 86.800 154.303,87.160 154.883,87.600 155.200 C 88.040 155.517,88.400 155.980,88.400 156.229 C 88.400 156.478,88.940 157.246,89.600 157.937 C 90.260 158.628,90.800 159.392,90.800 159.636 C 90.800 159.880,91.340 160.583,92.000 161.200 C 92.660 161.817,93.200 162.569,93.200 162.872 C 93.200 163.175,93.560 163.683,94.000 164.000 C 94.440 164.317,94.800 164.780,94.800 165.029 C 94.800 165.278,95.340 166.046,96.000 166.737 C 96.660 167.428,97.200 168.192,97.200 168.436 C 97.200 168.680,97.740 169.383,98.400 170.000 C 99.060 170.617,99.600 171.369,99.600 171.672 C 99.600 171.975,99.960 172.483,100.400 172.800 C 100.840 173.117,101.200 173.580,101.200 173.829 C 101.200 174.078,101.740 174.846,102.400 175.537 C 103.060 176.228,103.600 176.992,103.600 177.236 C 103.600 177.480,104.140 178.183,104.800 178.800 C 105.460 179.417,106.000 180.169,106.000 180.472 C 106.000 180.775,106.360 181.283,106.800 181.600 C 107.240 181.917,107.600 182.380,107.600 182.629 C 107.600 182.878,108.140 183.646,108.800 184.337 C 109.460 185.028,110.000 185.792,110.000 186.036 C 110.000 186.280,110.540 186.983,111.200 187.600 C 111.860 188.217,112.400 188.969,112.400 189.272 C 112.400 189.575,112.760 190.083,113.200 190.400 C 113.640 190.717,114.000 191.180,114.000 191.429 C 114.000 191.678,114.540 192.446,115.200 193.137 C 115.860 193.828,116.400 194.592,116.400 194.836 C 116.400 195.080,116.940 195.783,117.600 196.400 C 118.260 197.017,118.800 197.769,118.800 198.072 C 118.800 198.375,119.160 198.883,119.600 199.200 C 120.040 199.517,120.400 199.980,120.400 200.229 C 120.400 200.478,120.940 201.246,121.600 201.937 C 122.260 202.628,122.800 203.392,122.800 203.636 C 122.800 203.880,123.340 204.583,124.000 205.200 C 124.660 205.817,125.200 206.569,125.200 206.872 C 125.200 207.175,125.560 207.683,126.000 208.000 C 126.440 208.317,126.800 208.780,126.800 209.029 C 126.800 209.278,127.340 210.046,128.000 210.737 C 128.660 211.428,129.200 212.148,129.200 212.337 C 129.200 212.526,129.740 213.246,130.400 213.937 C 131.060 214.628,131.600 215.383,131.600 215.615 C 131.600 216.141,129.772 218.000,129.253 218.000 C 129.042 218.000,127.813 219.035,126.522 220.300 C 125.231 221.565,123.679 222.859,123.073 223.175 C 122.424 223.514,122.058 223.974,122.181 224.296 C 122.297 224.596,122.212 224.731,121.994 224.596 C 121.775 224.461,120.709 225.262,119.624 226.375 C 118.539 227.489,117.351 228.400,116.983 228.400 C 116.543 228.400,116.396 228.612,116.553 229.021 C 116.686 229.369,116.621 229.537,116.405 229.403 C 115.815 229.038,111.600 233.449,111.600 234.431 C 111.600 234.897,112.140 235.783,112.800 236.400 C 113.460 237.017,114.000 237.769,114.000 238.072 C 114.000 238.375,114.360 238.883,114.800 239.200 C 115.240 239.517,115.600 240.020,115.600 240.317 C 115.600 242.744,118.045 242.407,120.800 239.600 C 122.096 238.280,123.356 237.200,123.600 237.200 C 123.844 237.200,125.104 236.120,126.400 234.800 C 127.696 233.480,128.956 232.400,129.200 232.400 C 129.444 232.400,130.704 231.320,132.000 230.000 C 133.296 228.680,134.524 227.600,134.730 227.600 C 134.935 227.600,135.845 226.880,136.752 226.000 C 138.614 224.193,138.800 224.113,138.800 225.112 C 138.800 225.503,139.160 226.083,139.600 226.400 C 140.040 226.717,140.400 227.180,140.400 227.429 C 140.400 227.678,140.940 228.446,141.600 229.137 C 142.260 229.828,142.800 230.592,142.800 230.836 C 142.800 231.080,143.340 231.783,144.000 232.400 C 144.660 233.017,145.200 233.769,145.200 234.072 C 145.200 234.375,145.560 234.883,146.000 235.200 C 146.440 235.517,146.800 235.980,146.800 236.229 C 146.800 236.478,147.340 237.246,148.000 237.937 C 148.660 238.628,149.200 239.392,149.200 239.636 C 149.200 239.880,149.740 240.583,150.400 241.200 C 151.060 241.817,151.600 242.569,151.600 242.872 C 151.600 243.175,151.960 243.683,152.400 244.000 C 152.840 244.317,153.200 244.780,153.200 245.029 C 153.200 245.278,153.740 246.046,154.400 246.737 C 155.060 247.428,155.600 248.187,155.600 248.425 C 155.600 248.976,156.399 249.769,157.300 250.110 C 157.688 250.257,158.000 250.787,158.000 251.299 C 158.000 251.807,158.360 252.483,158.800 252.800 C 159.240 253.117,159.600 253.580,159.600 253.829 C 159.600 254.078,160.140 254.846,160.800 255.537 C 161.460 256.228,162.000 256.992,162.000 257.236 C 162.000 257.480,162.540 258.183,163.200 258.800 C 163.860 259.417,164.400 260.143,164.400 260.414 C 164.400 260.684,164.716 261.197,165.103 261.553 C 165.489 261.909,166.060 262.695,166.370 263.300 C 167.200 264.915,168.331 264.681,170.722 262.400 C 171.875 261.300,172.950 260.400,173.109 260.400 C 174.187 260.398,175.744 258.322,175.255 257.539 C 174.832 256.861,174.834 256.772,175.270 257.035 C 175.904 257.416,174.985 256.154,173.901 255.153 C 173.515 254.797,173.200 254.329,173.200 254.112 C 173.200 253.896,172.660 253.154,172.000 252.463 C 171.340 251.772,170.800 251.008,170.800 250.764 C 170.800 250.520,170.260 249.817,169.600 249.200 C 168.940 248.583,168.400 247.863,168.400 247.600 C 168.400 247.337,167.860 246.617,167.200 246.000 C 166.540 245.383,166.000 244.631,166.000 244.328 C 166.000 244.025,165.640 243.517,165.200 243.200 C 164.760 242.883,164.400 242.420,164.400 242.171 C 164.400 241.922,163.860 241.154,163.200 240.463 C 162.540 239.772,162.000 239.052,162.000 238.863 C 162.000 238.674,161.460 237.954,160.800 237.263 C 160.140 236.572,159.600 235.808,159.600 235.564 C 159.600 235.320,159.060 234.617,158.400 234.000 C 157.740 233.383,157.200 232.663,157.200 232.400 C 157.200 232.137,156.660 231.417,156.000 230.800 C 155.340 230.183,154.800 229.431,154.800 229.128 C 154.800 228.825,154.440 228.317,154.000 228.000 C 153.560 227.683,153.200 227.220,153.200 226.971 C 153.200 226.722,152.660 225.954,152.000 225.263 C 151.340 224.572,150.800 223.808,150.800 223.564 C 150.800 223.320,150.260 222.617,149.600 222.000 C 148.940 221.383,148.400 220.668,148.400 220.411 C 148.400 219.836,147.404 218.800,146.852 218.800 C 146.629 218.800,146.319 218.592,146.162 218.338 C 145.985 218.052,146.052 217.985,146.338 218.162 C 146.592 218.319,146.800 218.252,146.800 218.013 C 146.800 217.489,150.228 214.000,150.743 214.000 C 152.685 214.000,157.235 207.491,155.700 206.910 C 154.779 206.561,154.000 205.773,154.000 205.189 C 154.000 204.932,153.460 204.217,152.800 203.600 C 152.140 202.983,151.600 202.191,151.600 201.840 C 151.600 200.338,149.004 201.079,146.839 203.200 C 145.715 204.300,144.639 205.200,144.446 205.200 C 144.254 205.200,143.355 205.920,142.448 206.800 C 141.541 207.680,140.606 208.400,140.371 208.400 C 139.846 208.400,138.800 207.393,138.800 206.888 C 138.800 206.685,138.260 205.954,137.600 205.263 C 136.940 204.572,136.400 203.852,136.400 203.663 C 136.400 203.474,135.860 202.754,135.200 202.063 C 134.540 201.372,134.000 200.608,134.000 200.364 C 134.000 200.120,133.460 199.417,132.800 198.800 C 132.140 198.183,131.600 197.431,131.600 197.128 C 131.600 196.825,131.240 196.317,130.800 196.000 C 130.360 195.683,130.000 195.220,130.000 194.971 C 130.000 194.722,129.460 193.954,128.800 193.263 C 128.140 192.572,127.600 191.808,127.600 191.564 C 127.600 191.320,127.060 190.617,126.400 190.000 C 125.740 189.383,125.200 188.631,125.200 188.328 C 125.200 188.025,124.840 187.517,124.400 187.200 C 123.960 186.883,123.600 186.420,123.600 186.171 C 123.600 185.922,123.060 185.154,122.400 184.463 C 121.740 183.772,121.200 183.052,121.200 182.863 C 121.200 182.674,120.660 181.954,120.000 181.263 C 119.340 180.572,118.800 179.808,118.800 179.564 C 118.800 179.320,118.260 178.617,117.600 178.000 C 116.940 177.383,116.400 176.631,116.400 176.328 C 116.400 176.025,116.040 175.517,115.600 175.200 C 115.160 174.883,114.800 174.420,114.800 174.171 C 114.800 173.922,114.260 173.154,113.600 172.463 C 112.940 171.772,112.400 171.008,112.400 170.764 C 112.400 170.520,111.860 169.817,111.200 169.200 C 110.540 168.583,110.000 167.831,110.000 167.528 C 110.000 167.225,109.640 166.717,109.200 166.400 C 108.760 166.083,108.400 165.620,108.400 165.371 C 108.400 165.122,107.860 164.354,107.200 163.663 C 106.540 162.972,106.000 162.208,106.000 161.964 C 106.000 161.720,105.460 161.017,104.800 160.400 C 104.140 159.783,103.600 159.031,103.600 158.728 C 103.600 158.425,103.240 157.917,102.800 157.600 C 102.360 157.283,102.000 156.820,102.000 156.571 C 102.000 156.322,101.460 155.554,100.800 154.863 C 100.140 154.172,99.600 153.452,99.600 153.263 C 99.600 153.074,99.060 152.354,98.400 151.663 C 97.740 150.972,97.200 150.136,97.200 149.804 C 97.200 148.932,98.524 149.062,99.200 150.000 C 99.517 150.440,100.097 150.800,100.488 150.800 C 100.880 150.800,101.200 150.980,101.200 151.200 C 101.200 151.420,101.494 151.600,101.853 151.600 C 102.212 151.600,102.852 151.999,103.276 152.487 C 103.883 153.188,104.115 153.261,104.379 152.834 C 104.634 152.421,104.776 152.494,104.983 153.147 C 105.132 153.616,105.562 154.000,105.939 154.000 C 106.315 154.000,106.883 154.360,107.200 154.800 C 107.517 155.240,108.097 155.600,108.488 155.600 C 108.880 155.600,109.200 155.780,109.200 156.000 C 109.200 156.220,109.520 156.400,109.912 156.400 C 110.303 156.400,110.883 156.760,111.200 157.200 C 111.517 157.640,112.014 158.000,112.305 158.000 C 112.596 158.000,113.220 158.360,113.692 158.800 C 114.164 159.240,114.787 159.600,115.075 159.600 C 115.364 159.600,115.600 159.780,115.600 160.000 C 115.600 160.220,115.920 160.400,116.312 160.400 C 116.703 160.400,117.283 160.760,117.600 161.200 C 117.917 161.640,118.497 162.000,118.888 162.000 C 119.280 162.000,119.600 162.180,119.600 162.400 C 119.600 162.620,119.920 162.800,120.312 162.800 C 120.703 162.800,121.283 163.160,121.600 163.600 C 121.917 164.040,122.497 164.400,122.888 164.400 C 123.280 164.400,123.600 164.580,123.600 164.800 C 123.600 165.020,123.920 165.200,124.312 165.200 C 124.703 165.200,125.283 165.560,125.600 166.000 C 125.917 166.440,126.497 166.800,126.888 166.800 C 127.280 166.800,127.600 166.937,127.600 167.104 C 127.600 167.271,127.979 167.644,128.442 167.933 C 129.139 168.369,129.237 168.368,129.011 167.930 C 128.862 167.638,129.097 167.805,129.534 168.300 C 129.971 168.795,130.532 169.200,130.781 169.200 C 131.030 169.200,131.620 169.560,132.092 170.000 C 132.564 170.440,133.187 170.800,133.475 170.800 C 133.764 170.800,134.000 170.980,134.000 171.200 C 134.000 171.420,134.320 171.600,134.712 171.600 C 135.103 171.600,135.683 171.960,136.000 172.400 C 136.317 172.840,136.897 173.200,137.288 173.200 C 137.680 173.200,138.000 173.380,138.000 173.600 C 138.000 173.820,138.320 174.000,138.712 174.000 C 139.103 174.000,139.683 174.360,140.000 174.800 C 140.317 175.240,140.897 175.600,141.288 175.600 C 141.680 175.600,142.000 175.780,142.000 176.000 C 142.000 176.220,142.320 176.400,142.712 176.400 C 143.103 176.400,143.683 176.760,144.000 177.200 C 144.317 177.640,144.814 178.000,145.105 178.000 C 145.396 178.000,146.029 178.368,146.512 178.818 C 147.746 179.968,149.750 179.750,149.935 178.446 C 150.009 177.921,150.414 177.122,150.835 176.670 C 151.256 176.219,151.600 175.613,151.600 175.325 C 151.600 175.036,151.780 174.800,152.000 174.800 C 152.220 174.800,152.400 174.480,152.400 174.088 C 152.400 173.697,152.760 173.117,153.200 172.800 C 153.640 172.483,154.000 171.796,154.000 171.274 C 154.000 170.662,153.716 170.251,153.200 170.116 C 152.760 170.001,152.400 169.748,152.400 169.553 C 152.400 169.359,152.080 169.200,151.688 169.200 C 151.297 169.200,150.717 168.840,150.400 168.400 C 150.083 167.960,149.503 167.600,149.112 167.600 C 148.720 167.600,148.400 167.420,148.400 167.200 C 148.400 166.980,148.106 166.800,147.747 166.800 C 147.388 166.800,146.748 166.401,146.324 165.913 C 145.717 165.212,145.485 165.139,145.221 165.566 C 144.966 165.979,144.824 165.906,144.617 165.253 C 144.468 164.784,144.038 164.400,143.661 164.400 C 143.285 164.400,142.717 164.040,142.400 163.600 C 142.083 163.160,141.503 162.800,141.112 162.800 C 140.720 162.800,140.400 162.620,140.400 162.400 C 140.400 162.180,140.080 162.000,139.688 162.000 C 139.297 162.000,138.717 161.640,138.400 161.200 C 138.083 160.760,137.503 160.400,137.112 160.400 C 136.720 160.400,136.400 160.263,136.400 160.096 C 136.400 159.929,136.021 159.556,135.558 159.267 C 134.861 158.831,134.763 158.832,134.989 159.270 C 135.138 159.562,134.903 159.395,134.466 158.900 C 134.029 158.405,133.468 158.000,133.219 158.000 C 132.970 158.000,132.380 157.640,131.908 157.200 C 131.436 156.760,130.813 156.400,130.525 156.400 C 130.236 156.400,130.000 156.220,130.000 156.000 C 130.000 155.780,129.680 155.600,129.288 155.600 C 128.897 155.600,128.317 155.240,128.000 154.800 C 127.683 154.360,127.103 154.000,126.712 154.000 C 126.320 154.000,126.000 153.820,126.000 153.600 C 126.000 153.380,125.680 153.200,125.288 153.200 C 124.897 153.200,124.317 152.840,124.000 152.400 C 123.683 151.960,123.103 151.600,122.712 151.600 C 122.320 151.600,122.000 151.420,122.000 151.200 C 122.000 150.980,121.680 150.800,121.288 150.800 C 120.897 150.800,120.317 150.440,120.000 150.000 C 119.683 149.560,119.103 149.200,118.712 149.200 C 118.320 149.200,118.000 149.020,118.000 148.800 C 118.000 148.580,117.680 148.400,117.288 148.400 C 116.897 148.400,116.317 148.040,116.000 147.600 C 115.683 147.160,115.103 146.800,114.712 146.800 C 114.320 146.800,114.000 146.620,114.000 146.400 C 114.000 146.180,113.680 146.000,113.288 146.000 C 112.897 146.000,112.317 145.640,112.000 145.200 C 111.683 144.760,111.186 144.400,110.895 144.400 C 110.604 144.400,109.980 144.040,109.508 143.600 C 109.036 143.160,108.413 142.800,108.125 142.800 C 107.836 142.800,107.600 142.620,107.600 142.400 C 107.600 142.180,107.322 142.000,106.983 142.000 C 106.644 142.000,105.980 141.640,105.508 141.200 C 105.036 140.760,104.413 140.400,104.125 140.400 C 103.836 140.400,103.600 140.220,103.600 140.000 C 103.600 139.780,103.280 139.600,102.888 139.600 C 102.497 139.600,101.917 139.240,101.600 138.800 C 100.930 137.871,100.012 137.790,99.300 138.598 M319.800 144.000 C 319.664 144.220,319.023 144.400,318.376 144.400 C 317.729 144.400,317.200 144.580,317.200 144.800 C 317.200 145.020,316.840 145.200,316.400 145.200 C 315.960 145.200,315.600 145.380,315.600 145.600 C 315.600 145.820,315.312 146.000,314.960 146.000 C 314.253 146.000,310.800 149.465,310.800 150.175 C 310.800 150.422,310.440 150.883,310.000 151.200 C 309.560 151.517,309.200 152.097,309.200 152.488 C 309.200 152.880,309.020 153.200,308.800 153.200 C 308.580 153.200,308.400 153.549,308.400 153.976 C 308.400 154.403,308.220 154.864,308.000 155.000 C 307.780 155.136,307.600 155.676,307.600 156.200 C 307.600 156.724,307.429 157.258,307.221 157.387 C 306.738 157.685,306.758 166.000,307.241 166.000 C 307.438 166.000,307.600 166.540,307.600 167.200 C 307.600 167.860,307.780 168.400,308.000 168.400 C 308.220 168.400,308.404 168.805,308.409 169.300 C 308.414 169.795,308.770 170.650,309.200 171.200 C 309.630 171.750,309.986 172.349,309.991 172.531 C 310.006 173.093,315.260 178.000,315.846 178.000 C 316.151 178.000,316.400 178.180,316.400 178.400 C 316.400 178.620,316.760 178.800,317.200 178.800 C 317.640 178.800,318.000 178.944,318.000 179.121 C 318.000 179.297,318.654 179.460,319.453 179.483 C 320.252 179.505,321.027 179.720,321.175 179.959 C 321.507 180.497,330.000 180.509,330.000 179.971 C 330.000 179.767,330.414 179.600,330.920 179.600 C 331.974 179.600,333.992 178.747,333.997 178.300 C 333.999 178.135,334.320 178.000,334.712 178.000 C 335.103 178.000,335.683 177.640,336.000 177.200 C 336.317 176.760,336.762 176.400,336.988 176.400 C 338.390 176.398,342.800 170.344,342.800 168.421 C 342.800 168.006,343.025 167.575,343.300 167.464 C 343.689 167.306,343.679 167.176,343.257 166.880 C 342.878 166.615,342.848 166.418,343.157 166.226 C 343.731 165.872,343.772 156.400,343.200 156.400 C 342.980 156.400,342.800 155.860,342.800 155.200 C 342.800 154.540,342.620 154.000,342.400 154.000 C 342.180 154.000,342.000 153.640,342.000 153.200 C 342.000 152.760,341.820 152.400,341.600 152.400 C 341.380 152.400,341.200 152.127,341.200 151.793 C 341.200 151.001,336.199 146.000,335.407 146.000 C 335.073 146.000,334.800 145.820,334.800 145.600 C 334.800 145.380,334.440 145.200,334.000 145.200 C 333.560 145.200,333.200 145.020,333.200 144.800 C 333.200 144.580,332.660 144.400,332.000 144.400 C 331.340 144.400,330.800 144.220,330.800 144.000 C 330.800 143.753,328.741 143.600,325.424 143.600 C 322.271 143.600,319.945 143.765,319.800 144.000 M170.000 170.400 C 170.000 170.620,169.291 170.800,168.424 170.800 C 167.557 170.800,166.736 170.980,166.600 171.200 C 166.464 171.420,166.081 171.600,165.748 171.600 C 163.772 171.600,157.200 178.036,157.200 179.972 C 157.200 180.207,157.020 180.400,156.800 180.400 C 156.580 180.400,156.400 180.940,156.400 181.600 C 156.400 182.260,156.220 182.800,156.000 182.800 C 155.780 182.800,155.600 183.700,155.600 184.800 C 155.600 185.900,155.420 186.800,155.200 186.800 C 154.980 186.800,154.800 187.599,154.800 188.576 C 154.800 189.553,154.980 190.464,155.200 190.600 C 155.420 190.736,155.600 191.559,155.600 192.429 C 155.600 193.299,155.768 194.323,155.974 194.705 C 156.179 195.087,156.583 195.985,156.871 196.700 C 157.160 197.415,157.531 198.000,157.698 198.000 C 157.864 198.000,158.000 198.273,158.000 198.607 C 158.000 199.399,163.001 204.400,163.793 204.400 C 164.127 204.400,164.400 204.580,164.400 204.800 C 164.400 205.020,164.760 205.200,165.200 205.200 C 165.640 205.200,166.000 205.380,166.000 205.600 C 166.000 205.820,166.360 206.000,166.800 206.000 C 167.240 206.000,167.600 206.180,167.600 206.400 C 167.600 206.649,169.867 206.800,173.600 206.800 C 177.333 206.800,179.600 206.649,179.600 206.400 C 179.600 206.180,180.140 206.000,180.800 206.000 C 181.460 206.000,182.000 205.820,182.000 205.600 C 182.000 205.380,182.243 205.200,182.541 205.200 C 182.838 205.200,183.646 204.660,184.337 204.000 C 185.028 203.340,185.765 202.800,185.976 202.800 C 186.187 202.800,186.863 202.125,187.480 201.300 C 188.096 200.476,188.915 199.452,189.300 199.025 C 189.685 198.598,190.000 198.013,190.000 197.725 C 190.000 197.436,190.180 197.200,190.400 197.200 C 190.620 197.200,190.800 196.851,190.800 196.424 C 190.800 195.997,190.980 195.536,191.200 195.400 C 191.420 195.264,191.600 194.533,191.600 193.776 C 191.600 193.019,191.778 192.400,191.995 192.400 C 192.229 192.400,192.379 190.924,192.363 188.800 C 192.347 186.820,192.169 185.200,191.967 185.200 C 191.765 185.200,191.600 184.606,191.600 183.880 C 191.600 182.501,190.817 180.409,190.300 180.403 C 190.135 180.401,190.000 180.059,190.000 179.643 C 190.000 179.226,189.719 178.778,189.375 178.646 C 189.031 178.514,188.863 178.222,189.001 177.998 C 189.349 177.435,184.003 172.313,183.335 172.570 C 183.038 172.684,182.800 172.514,182.800 172.187 C 182.800 171.864,182.451 171.600,182.024 171.600 C 181.597 171.600,181.136 171.420,181.000 171.200 C 180.864 170.980,179.953 170.800,178.976 170.800 C 177.999 170.800,177.200 170.620,177.200 170.400 C 177.200 170.163,175.733 170.000,173.600 170.000 C 171.467 170.000,170.000 170.163,170.000 170.400 M197.200 199.600 C 197.200 200.040,197.020 200.400,196.800 200.400 C 196.580 200.400,196.400 200.720,196.400 201.112 C 196.400 201.503,196.040 202.083,195.600 202.400 C 195.160 202.717,194.800 203.257,194.800 203.600 C 194.800 203.943,194.440 204.483,194.000 204.800 C 192.631 205.787,193.272 208.400,194.883 208.400 C 195.180 208.400,195.683 208.760,196.000 209.200 C 196.317 209.640,196.814 210.000,197.105 210.000 C 197.396 210.000,198.020 210.360,198.492 210.800 C 198.964 211.240,199.587 211.600,199.875 211.600 C 200.164 211.600,200.400 211.780,200.400 212.000 C 200.400 212.220,200.720 212.400,201.112 212.400 C 201.503 212.400,202.083 212.760,202.400 213.200 C 202.717 213.640,203.297 214.000,203.688 214.000 C 204.080 214.000,204.400 214.180,204.400 214.400 C 204.400 214.620,204.720 214.800,205.112 214.800 C 205.503 214.800,206.083 215.160,206.400 215.600 C 206.717 216.040,207.297 216.400,207.688 216.400 C 208.080 216.400,208.400 216.537,208.400 216.704 C 208.400 216.871,208.779 217.244,209.242 217.533 C 209.939 217.969,210.037 217.968,209.811 217.530 C 209.662 217.238,209.897 217.405,210.334 217.900 C 210.771 218.395,211.332 218.800,211.581 218.800 C 211.830 218.800,212.420 219.160,212.892 219.600 C 213.364 220.040,213.987 220.400,214.275 220.400 C 214.564 220.400,214.800 220.580,214.800 220.800 C 214.800 221.020,215.120 221.200,215.512 221.200 C 215.903 221.200,216.483 221.560,216.800 222.000 C 217.117 222.440,217.697 222.800,218.088 222.800 C 218.480 222.800,218.800 222.980,218.800 223.200 C 218.800 224.237,221.140 223.583,221.664 222.400 C 221.956 221.740,222.331 221.200,222.498 221.200 C 222.664 221.200,222.800 220.880,222.800 220.488 C 222.800 220.097,223.160 219.517,223.600 219.200 C 224.040 218.883,224.400 218.343,224.400 218.000 C 224.400 217.657,224.760 217.117,225.200 216.800 C 226.513 215.854,225.199 213.200,223.418 213.200 C 223.078 213.200,222.800 213.020,222.800 212.800 C 222.800 212.580,222.480 212.400,222.088 212.400 C 221.697 212.400,221.117 212.040,220.800 211.600 C 220.483 211.160,219.903 210.800,219.512 210.800 C 219.120 210.800,218.800 210.620,218.800 210.400 C 218.800 210.180,218.480 210.000,218.088 210.000 C 217.697 210.000,217.117 209.640,216.800 209.200 C 216.483 208.760,215.986 208.400,215.695 208.400 C 215.404 208.400,214.780 208.040,214.308 207.600 C 213.836 207.160,213.213 206.800,212.925 206.800 C 212.636 206.800,212.400 206.620,212.400 206.400 C 212.400 206.180,212.122 206.000,211.783 206.000 C 211.444 206.000,210.780 205.640,210.308 205.200 C 209.836 204.760,209.213 204.400,208.925 204.400 C 208.636 204.400,208.400 204.220,208.400 204.000 C 208.400 203.780,208.080 203.600,207.688 203.600 C 207.297 203.600,206.717 203.240,206.400 202.800 C 206.083 202.360,205.503 202.000,205.112 202.000 C 204.720 202.000,204.400 201.820,204.400 201.600 C 204.400 201.380,204.209 201.200,203.976 201.200 C 203.743 201.200,203.680 201.425,203.836 201.700 C 203.992 201.975,203.531 201.615,202.812 200.900 C 202.093 200.185,201.256 199.600,200.953 199.600 C 200.649 199.600,200.400 199.420,200.400 199.200 C 200.400 198.631,198.664 198.704,198.021 199.300 C 197.590 199.700,197.539 199.700,197.765 199.300 C 197.920 199.025,197.857 198.800,197.624 198.800 C 197.391 198.800,197.200 199.160,197.200 199.600 M240.400 215.200 C 240.400 215.420,239.860 215.600,239.200 215.600 C 238.540 215.600,238.000 215.780,238.000 216.000 C 238.000 216.220,237.640 216.400,237.200 216.400 C 236.760 216.400,236.400 216.580,236.400 216.800 C 236.400 217.020,236.040 217.200,235.600 217.200 C 235.160 217.200,234.800 217.350,234.800 217.532 C 234.800 217.715,234.305 218.119,233.700 218.431 C 232.348 219.126,230.000 221.568,230.000 222.278 C 230.000 222.565,229.853 222.800,229.674 222.800 C 229.215 222.800,227.600 225.925,227.600 226.814 C 227.600 227.220,227.420 227.664,227.200 227.800 C 226.967 227.944,226.800 230.196,226.800 233.200 C 226.800 236.204,226.967 238.456,227.200 238.600 C 227.420 238.736,227.600 239.377,227.600 240.024 C 227.600 240.671,227.780 241.200,228.000 241.200 C 228.220 241.200,228.400 241.560,228.400 242.000 C 228.400 242.440,228.580 242.800,228.800 242.800 C 229.020 242.800,229.200 243.060,229.200 243.378 C 229.200 244.130,234.270 249.200,235.022 249.200 C 235.340 249.200,235.600 249.380,235.600 249.600 C 235.600 249.820,235.960 250.000,236.400 250.000 C 236.840 250.000,237.200 250.180,237.200 250.400 C 237.200 250.620,237.740 250.800,238.400 250.800 C 239.060 250.800,239.600 250.980,239.600 251.200 C 239.600 251.446,241.600 251.600,244.800 251.600 C 248.000 251.600,250.000 251.446,250.000 251.200 C 250.000 250.980,250.585 250.796,251.300 250.791 C 252.015 250.786,253.050 250.430,253.600 250.000 C 254.150 249.570,254.825 249.214,255.100 249.209 C 255.375 249.204,255.600 249.020,255.600 248.800 C 255.600 248.580,255.835 248.400,256.122 248.400 C 256.832 248.400,259.274 246.052,259.969 244.700 C 260.281 244.095,260.685 243.600,260.868 243.600 C 261.050 243.600,261.200 243.240,261.200 242.800 C 261.200 242.360,261.380 242.000,261.600 242.000 C 261.820 242.000,262.000 241.640,262.000 241.200 C 262.000 240.760,262.180 240.400,262.400 240.400 C 262.620 240.400,262.800 239.860,262.800 239.200 C 262.800 238.540,262.963 238.000,263.162 238.000 C 263.674 238.000,263.720 228.921,263.209 228.606 C 262.984 228.467,262.800 227.823,262.800 227.176 C 262.800 226.529,262.620 226.000,262.400 226.000 C 262.180 226.000,262.000 225.640,262.000 225.200 C 262.000 224.760,261.820 224.400,261.600 224.400 C 261.380 224.400,261.200 224.128,261.200 223.796 C 261.200 223.464,260.660 222.628,260.000 221.937 C 259.340 221.246,258.800 220.438,258.800 220.141 C 258.800 219.843,258.557 219.600,258.259 219.600 C 257.962 219.600,257.154 219.060,256.463 218.400 C 255.772 217.740,254.936 217.200,254.604 217.200 C 254.272 217.200,254.000 217.020,254.000 216.800 C 254.000 216.580,253.640 216.400,253.200 216.400 C 252.760 216.400,252.400 216.220,252.400 216.000 C 252.400 215.780,251.871 215.600,251.224 215.600 C 250.577 215.600,249.936 215.420,249.800 215.200 C 249.658 214.971,247.596 214.800,244.976 214.800 C 242.192 214.800,240.400 214.957,240.400 215.200 M90.000 235.200 C 90.000 235.420,89.100 235.600,88.000 235.600 C 86.900 235.600,86.000 235.780,86.000 236.000 C 86.000 236.220,85.640 236.400,85.200 236.400 C 84.760 236.400,84.400 236.580,84.400 236.800 C 84.400 237.020,84.127 237.200,83.793 237.200 C 83.111 237.200,78.000 242.149,78.000 242.809 C 78.000 243.043,77.640 243.620,77.200 244.092 C 76.760 244.564,76.400 245.187,76.400 245.475 C 76.400 245.764,76.238 246.000,76.040 246.000 C 75.842 246.000,75.680 246.653,75.680 247.452 C 75.680 248.250,75.504 249.015,75.288 249.152 C 74.746 249.495,74.647 257.458,75.181 257.788 C 75.411 257.931,75.600 258.577,75.600 259.224 C 75.600 259.871,75.780 260.400,76.000 260.400 C 76.220 260.400,76.400 260.760,76.400 261.200 C 76.400 261.640,76.580 262.000,76.800 262.000 C 77.020 262.000,77.200 262.320,77.200 262.712 C 77.200 263.103,77.560 263.683,78.000 264.000 C 78.440 264.317,78.800 264.789,78.800 265.048 C 78.800 265.710,81.561 268.400,82.240 268.400 C 82.548 268.400,82.801 268.535,82.803 268.700 C 82.807 269.059,84.744 270.000,85.480 270.000 C 85.766 270.000,86.000 270.180,86.000 270.400 C 86.000 270.620,86.540 270.800,87.200 270.800 C 87.860 270.800,88.400 270.990,88.400 271.221 C 88.400 271.499,90.175 271.615,93.600 271.563 C 96.460 271.519,98.800 271.329,98.800 271.142 C 98.800 270.954,99.340 270.800,100.000 270.800 C 100.660 270.800,101.200 270.620,101.200 270.400 C 101.200 270.180,101.560 270.000,102.000 270.000 C 102.440 270.000,102.800 269.736,102.800 269.413 C 102.800 269.077,103.037 268.916,103.353 269.037 C 104.000 269.286,109.200 264.253,109.200 263.378 C 109.200 263.060,109.380 262.800,109.600 262.800 C 109.820 262.800,110.000 262.440,110.000 262.000 C 110.000 261.560,110.180 261.200,110.400 261.200 C 110.620 261.200,110.800 260.675,110.800 260.033 C 110.800 259.392,110.989 258.804,111.219 258.727 C 111.788 258.537,111.793 248.433,111.224 247.864 C 110.991 247.631,110.800 247.060,110.800 246.595 C 110.800 246.131,110.440 245.364,110.000 244.892 C 109.560 244.420,109.200 243.756,109.200 243.417 C 109.200 243.078,109.062 242.800,108.894 242.800 C 108.726 242.800,108.160 242.106,107.636 241.258 C 107.112 240.410,105.990 239.288,105.142 238.764 C 104.294 238.240,103.600 237.674,103.600 237.506 C 103.600 237.338,103.240 237.200,102.800 237.200 C 102.360 237.200,102.000 237.020,102.000 236.800 C 102.000 236.580,101.640 236.400,101.200 236.400 C 100.760 236.400,100.400 236.220,100.400 236.000 C 100.400 235.780,99.680 235.600,98.800 235.600 C 97.920 235.600,97.200 235.420,97.200 235.200 C 97.200 234.980,96.885 234.803,96.500 234.806 C 95.902 234.811,95.887 234.869,96.400 235.200 C 96.761 235.433,96.810 235.590,96.524 235.594 C 96.262 235.597,95.936 235.420,95.800 235.200 C 95.664 234.980,94.303 234.800,92.776 234.800 C 91.192 234.800,90.000 234.972,90.000 235.200 M269.200 242.800 C 269.200 243.240,269.020 243.600,268.800 243.600 C 268.580 243.600,268.400 243.960,268.400 244.400 C 268.400 244.840,268.220 245.200,268.000 245.200 C 267.780 245.200,267.600 245.520,267.600 245.912 C 267.600 246.303,267.240 246.883,266.800 247.200 C 266.360 247.517,266.000 248.097,266.000 248.488 C 266.000 248.880,265.820 249.200,265.600 249.200 C 264.993 249.200,265.122 251.179,265.771 251.829 C 266.086 252.143,266.626 252.400,266.971 252.400 C 267.317 252.400,267.600 252.580,267.600 252.800 C 267.600 253.020,267.920 253.200,268.312 253.200 C 268.703 253.200,269.283 253.560,269.600 254.000 C 269.917 254.440,270.497 254.800,270.888 254.800 C 271.280 254.800,271.600 254.980,271.600 255.200 C 271.600 255.420,271.920 255.600,272.312 255.600 C 272.703 255.600,273.283 255.960,273.600 256.400 C 273.917 256.840,274.497 257.200,274.888 257.200 C 275.280 257.200,275.600 257.380,275.600 257.600 C 275.600 257.820,275.920 258.000,276.312 258.000 C 276.703 258.000,277.283 258.360,277.600 258.800 C 277.917 259.240,278.497 259.600,278.888 259.600 C 279.280 259.600,279.600 259.780,279.600 260.000 C 279.600 260.220,279.960 260.400,280.400 260.400 C 280.933 260.400,281.200 260.133,281.200 259.600 C 281.200 259.160,281.380 258.800,281.600 258.800 C 281.820 258.800,282.000 258.440,282.000 258.000 C 282.000 257.560,282.180 257.200,282.400 257.200 C 282.620 257.200,282.800 256.880,282.800 256.488 C 282.800 256.097,283.160 255.517,283.600 255.200 C 284.040 254.883,284.400 254.303,284.400 253.912 C 284.400 253.520,284.580 253.200,284.800 253.200 C 285.407 253.200,285.278 251.221,284.629 250.571 C 284.314 250.257,283.814 250.000,283.517 250.000 C 283.220 250.000,282.717 249.640,282.400 249.200 C 282.083 248.760,281.503 248.400,281.112 248.400 C 280.720 248.400,280.400 248.220,280.400 248.000 C 280.400 247.780,280.080 247.600,279.688 247.600 C 279.297 247.600,278.717 247.240,278.400 246.800 C 278.083 246.360,277.503 246.000,277.112 246.000 C 276.720 246.000,276.400 245.820,276.400 245.600 C 276.400 245.380,276.080 245.200,275.688 245.200 C 275.297 245.200,274.717 244.840,274.400 244.400 C 274.083 243.960,273.503 243.600,273.112 243.600 C 272.720 243.600,272.400 243.420,272.400 243.200 C 272.400 242.980,272.040 242.800,271.600 242.800 C 271.160 242.800,270.800 242.620,270.800 242.400 C 270.800 242.180,270.440 242.000,270.000 242.000 C 269.467 242.000,269.200 242.267,269.200 242.800 M221.200 245.600 C 221.200 245.820,220.840 246.000,220.400 246.000 C 219.960 246.000,219.600 246.191,219.600 246.424 C 219.600 246.657,219.780 246.736,220.000 246.600 C 220.651 246.198,220.456 246.657,219.723 247.251 C 219.263 247.624,219.143 247.640,219.347 247.300 C 220.037 246.152,218.976 246.953,216.831 249.200 C 215.571 250.520,214.239 251.600,213.870 251.600 C 213.502 251.600,213.200 251.791,213.200 252.024 C 213.200 252.257,213.425 252.312,213.700 252.147 C 214.040 251.943,214.024 252.063,213.651 252.523 C 213.057 253.256,212.598 253.451,213.000 252.800 C 213.661 251.731,212.493 252.640,210.431 254.800 C 209.171 256.120,207.839 257.200,207.470 257.200 C 207.102 257.200,206.800 257.391,206.800 257.624 C 206.800 257.857,207.025 257.912,207.300 257.747 C 207.640 257.543,207.624 257.663,207.251 258.123 C 206.657 258.856,206.198 259.051,206.600 258.400 C 207.115 257.567,206.321 258.052,204.987 259.387 C 203.122 261.252,203.224 262.085,205.600 264.400 C 206.700 265.471,207.600 266.548,207.600 266.792 C 207.600 267.371,209.433 269.200,210.013 269.200 C 210.260 269.200,211.154 268.480,212.000 267.600 C 212.846 266.720,213.821 266.000,214.169 266.000 C 214.516 266.000,214.800 265.809,214.800 265.576 C 214.800 265.343,214.620 265.264,214.400 265.400 C 213.749 265.802,213.944 265.343,214.677 264.749 C 215.137 264.376,215.257 264.360,215.053 264.700 C 214.390 265.804,215.366 265.076,217.600 262.800 C 218.896 261.480,220.154 260.400,220.397 260.400 C 220.640 260.400,222.081 259.140,223.600 257.600 C 225.119 256.060,226.640 254.800,226.981 254.800 C 228.501 254.800,227.712 252.057,225.600 250.000 C 224.500 248.929,223.600 247.770,223.600 247.426 C 223.600 247.082,223.420 246.800,223.200 246.800 C 222.980 246.800,222.800 246.440,222.800 246.000 C 222.800 245.467,222.533 245.200,222.000 245.200 C 221.560 245.200,221.200 245.380,221.200 245.600 M299.800 251.200 C 299.664 251.420,299.023 251.600,298.376 251.600 C 297.729 251.600,297.200 251.780,297.200 252.000 C 297.200 252.220,296.840 252.400,296.400 252.400 C 295.960 252.400,295.600 252.580,295.600 252.800 C 295.600 253.020,295.316 253.200,294.969 253.200 C 294.245 253.200,291.553 255.878,290.522 257.624 C 290.140 258.271,289.686 258.800,289.514 258.800 C 289.341 258.800,289.200 259.160,289.200 259.600 C 289.200 260.040,289.020 260.400,288.800 260.400 C 288.580 260.400,288.400 260.760,288.400 261.200 C 288.400 261.640,288.220 262.000,288.000 262.000 C 287.780 262.000,287.600 262.540,287.600 263.200 C 287.600 263.860,287.437 264.400,287.238 264.400 C 286.726 264.400,286.680 273.479,287.191 273.794 C 287.416 273.933,287.600 274.378,287.600 274.783 C 287.600 277.017,294.078 285.200,295.846 285.200 C 296.151 285.200,296.400 285.380,296.400 285.600 C 296.400 285.820,296.760 286.000,297.200 286.000 C 297.640 286.000,298.000 286.180,298.000 286.400 C 298.000 286.620,298.529 286.800,299.176 286.800 C 299.823 286.800,300.470 286.989,300.613 287.221 C 300.925 287.726,310.000 287.645,310.000 287.137 C 310.000 286.952,310.540 286.800,311.200 286.800 C 311.860 286.800,312.400 286.620,312.400 286.400 C 312.400 286.180,312.760 286.000,313.200 286.000 C 313.640 286.000,314.000 285.820,314.000 285.600 C 314.000 285.380,314.294 285.200,314.653 285.200 C 315.012 285.200,315.597 284.884,315.953 284.497 C 316.309 284.111,317.060 283.559,317.621 283.272 C 318.183 282.984,319.081 282.040,319.616 281.175 C 320.151 280.309,320.726 279.600,320.894 279.600 C 321.062 279.600,321.200 279.240,321.200 278.800 C 321.200 278.360,321.336 278.000,321.502 278.000 C 321.669 278.000,322.040 277.415,322.329 276.700 C 322.617 275.985,323.031 275.070,323.250 274.667 C 323.791 273.670,323.764 263.855,323.219 263.673 C 322.989 263.596,322.800 263.008,322.800 262.367 C 322.800 261.725,322.620 261.200,322.400 261.200 C 322.180 261.200,322.000 260.840,322.000 260.400 C 322.000 259.960,321.820 259.600,321.600 259.600 C 321.380 259.600,321.200 259.351,321.200 259.046 C 321.200 258.270,316.197 253.200,315.431 253.200 C 315.084 253.200,314.800 253.020,314.800 252.800 C 314.800 252.580,314.440 252.400,314.000 252.400 C 313.560 252.400,313.200 252.220,313.200 252.000 C 313.200 251.780,312.660 251.600,312.000 251.600 C 311.340 251.600,310.800 251.420,310.800 251.200 C 310.800 250.953,308.741 250.800,305.424 250.800 C 302.271 250.800,299.945 250.965,299.800 251.200 M185.200 263.997 C 185.200 264.219,184.221 264.400,183.024 264.400 C 181.827 264.400,180.736 264.580,180.600 264.800 C 180.464 265.020,180.023 265.200,179.619 265.200 C 179.216 265.200,178.783 265.467,178.658 265.793 C 178.528 266.131,178.165 266.285,177.815 266.150 C 177.477 266.021,177.200 266.075,177.200 266.271 C 177.200 266.467,176.682 266.933,176.049 267.307 C 174.462 268.245,172.710 269.986,172.032 271.300 C 171.720 271.905,171.315 272.400,171.132 272.400 C 170.950 272.400,170.800 272.760,170.800 273.200 C 170.800 273.640,170.620 274.000,170.400 274.000 C 170.180 274.000,170.000 274.349,170.000 274.776 C 170.000 275.203,169.820 275.664,169.600 275.800 C 169.380 275.936,169.200 276.476,169.200 277.000 C 169.200 277.524,169.013 278.068,168.784 278.210 C 168.278 278.523,168.339 286.000,168.848 286.000 C 169.042 286.000,169.200 286.619,169.200 287.376 C 169.200 288.133,169.380 288.864,169.600 289.000 C 169.820 289.136,170.000 289.577,170.000 289.981 C 170.000 290.384,170.267 290.817,170.593 290.942 C 170.931 291.072,171.085 291.435,170.950 291.785 C 170.821 292.123,170.875 292.400,171.071 292.400 C 171.267 292.400,171.749 292.945,172.143 293.611 C 173.053 295.152,174.448 296.547,175.989 297.457 C 176.655 297.851,177.200 298.314,177.200 298.486 C 177.200 298.659,177.560 298.800,178.000 298.800 C 178.440 298.800,178.800 298.980,178.800 299.200 C 178.800 299.420,179.145 299.600,179.567 299.600 C 179.988 299.600,180.404 299.811,180.490 300.069 C 180.714 300.741,193.006 300.754,193.677 300.083 C 193.943 299.817,194.484 299.600,194.880 299.600 C 195.276 299.600,195.600 299.420,195.600 299.200 C 195.600 298.980,195.888 298.800,196.240 298.800 C 196.591 298.800,197.362 298.305,197.952 297.700 C 198.542 297.095,199.367 296.408,199.785 296.173 C 200.204 295.939,200.739 295.401,200.973 294.979 C 201.208 294.557,201.715 293.918,202.100 293.559 C 202.485 293.200,202.804 292.747,202.809 292.553 C 202.814 292.359,203.170 291.750,203.600 291.200 C 204.030 290.650,204.386 289.806,204.391 289.324 C 204.396 288.842,204.580 288.336,204.800 288.200 C 205.020 288.064,205.200 287.074,205.200 286.000 C 205.200 284.926,205.380 283.936,205.600 283.800 C 205.820 283.664,206.000 282.944,206.000 282.200 C 206.000 281.456,205.820 280.736,205.600 280.600 C 205.380 280.464,205.200 279.463,205.200 278.376 C 205.200 277.289,205.020 276.400,204.800 276.400 C 204.580 276.400,204.400 276.045,204.400 275.612 C 204.400 274.640,202.974 272.045,201.955 271.161 C 201.540 270.801,201.200 270.243,201.200 269.921 C 201.200 269.599,200.705 269.080,200.100 268.768 C 199.495 268.455,198.523 267.705,197.940 267.100 C 197.356 266.495,196.591 266.000,196.240 266.000 C 195.888 266.000,195.600 265.820,195.600 265.600 C 195.600 265.380,195.060 265.200,194.400 265.200 C 193.740 265.200,193.200 265.020,193.200 264.800 C 193.200 264.580,192.311 264.400,191.224 264.400 C 190.137 264.400,189.154 264.249,189.040 264.065 C 188.741 263.581,185.200 263.518,185.200 263.997 " stroke="none" fill="#346ce4" fill-rule="evenodd"></path><path id="path1" d="" stroke="none" fill="#386ce4" fill-rule="evenodd"></path><path id="path2" d="" stroke="none" fill="#386ce4" fill-rule="evenodd"></path><path id="path3" d="" stroke="none" fill="#386ce4" fill-rule="evenodd"></path><path id="path4" d="" stroke="none" fill="#386ce4" fill-rule="evenodd"></path></g></svg>