<svg id="svg" version="1.1" xmlns="http://www.w3.org/2000/svg" xmlns:xlink="http://www.w3.org/1999/xlink" width="400" height="400" viewBox="0, 0, 400,400"><g id="svgg"><path id="path0" d="M131.800 107.200 C 131.664 107.420,131.203 107.600,130.776 107.600 C 130.349 107.600,130.000 107.780,130.000 108.000 C 130.000 108.220,129.706 108.400,129.347 108.400 C 128.988 108.400,128.403 108.716,128.047 109.103 C 127.691 109.489,126.925 110.049,126.344 110.347 C 125.763 110.644,125.043 111.363,124.744 111.944 C 124.445 112.525,123.885 113.349,123.500 113.775 C 123.115 114.202,122.800 114.967,122.800 115.475 C 122.800 115.984,122.620 116.400,122.400 116.400 C 122.180 116.400,122.000 117.120,122.000 118.000 C 122.000 118.880,121.838 119.600,121.640 119.600 C 121.442 119.600,121.280 120.248,121.280 121.040 C 121.280 121.832,121.082 122.678,120.840 122.920 C 120.598 123.162,120.400 124.134,120.400 125.080 C 120.400 126.026,120.220 126.800,120.000 126.800 C 119.780 126.800,119.600 127.520,119.600 128.400 C 119.600 129.280,119.420 130.000,119.200 130.000 C 118.980 130.000,118.800 130.709,118.800 131.576 C 118.800 132.443,118.620 133.264,118.400 133.400 C 118.180 133.536,118.000 134.447,118.000 135.424 C 118.000 136.401,117.820 137.200,117.600 137.200 C 117.380 137.200,117.200 137.920,117.200 138.800 C 117.200 139.680,117.020 140.400,116.800 140.400 C 116.580 140.400,116.400 141.109,116.400 141.976 C 116.400 142.843,116.220 143.664,116.000 143.800 C 115.780 143.936,115.600 144.847,115.600 145.824 C 115.600 146.801,115.420 147.600,115.200 147.600 C 114.980 147.600,114.800 148.320,114.800 149.200 C 114.800 150.080,114.620 150.800,114.400 150.800 C 114.180 150.800,114.000 151.509,114.000 152.376 C 114.000 153.243,113.820 154.064,113.600 154.200 C 113.380 154.336,113.200 155.247,113.200 156.224 C 113.200 157.201,113.020 158.000,112.800 158.000 C 112.580 158.000,112.400 158.720,112.400 159.600 C 112.400 160.480,112.220 161.200,112.000 161.200 C 111.780 161.200,111.600 161.909,111.600 162.776 C 111.600 163.643,111.420 164.464,111.200 164.600 C 110.980 164.736,110.800 165.647,110.800 166.624 C 110.800 167.601,110.620 168.400,110.400 168.400 C 110.180 168.400,110.000 169.120,110.000 170.000 C 110.000 170.880,109.820 171.600,109.600 171.600 C 109.380 171.600,109.200 172.309,109.200 173.176 C 109.200 174.043,109.020 174.864,108.800 175.000 C 108.580 175.136,108.400 176.047,108.400 177.024 C 108.400 178.001,108.220 178.800,108.000 178.800 C 107.780 178.800,107.600 179.520,107.600 180.400 C 107.600 181.280,107.420 182.000,107.200 182.000 C 106.980 182.000,106.800 182.900,106.800 184.000 C 106.800 185.100,106.620 186.000,106.400 186.000 C 106.180 186.000,106.000 186.720,106.000 187.600 C 106.000 188.480,105.820 189.200,105.600 189.200 C 105.380 189.200,105.200 189.909,105.200 190.776 C 105.200 191.643,105.020 192.464,104.800 192.600 C 104.580 192.736,104.400 193.647,104.400 194.624 C 104.400 195.601,104.220 196.400,104.000 196.400 C 103.780 196.400,103.600 197.120,103.600 198.000 C 103.600 198.880,103.438 199.600,103.240 199.600 C 103.042 199.600,102.880 200.248,102.880 201.040 C 102.880 201.832,102.682 202.678,102.440 202.920 C 102.198 203.162,102.000 204.134,102.000 205.080 C 102.000 206.026,101.820 206.800,101.600 206.800 C 101.380 206.800,101.200 207.520,101.200 208.400 C 101.200 209.280,101.020 210.000,100.800 210.000 C 100.580 210.000,100.400 210.709,100.400 211.576 C 100.400 212.443,100.220 213.264,100.000 213.400 C 99.780 213.536,99.600 214.447,99.600 215.424 C 99.600 216.401,99.420 217.200,99.200 217.200 C 98.980 217.200,98.800 217.920,98.800 218.800 C 98.800 219.680,98.620 220.400,98.400 220.400 C 98.180 220.400,98.000 221.109,98.000 221.976 C 98.000 222.843,97.820 223.664,97.600 223.800 C 97.380 223.936,97.200 224.847,97.200 225.824 C 97.200 226.801,97.020 227.600,96.800 227.600 C 96.580 227.600,96.400 228.320,96.400 229.200 C 96.400 230.080,96.225 230.800,96.012 230.800 C 95.799 230.800,95.648 231.422,95.676 232.182 C 95.705 232.942,95.544 233.797,95.320 234.082 C 95.095 234.367,94.890 235.319,94.864 236.197 C 94.838 237.076,94.633 237.856,94.409 237.930 C 94.184 238.005,94.000 238.772,94.000 239.633 C 94.000 240.495,93.820 241.200,93.600 241.200 C 93.380 241.200,93.200 241.909,93.200 242.776 C 93.200 243.643,93.020 244.464,92.800 244.600 C 92.580 244.736,92.400 245.647,92.400 246.624 C 92.400 247.601,92.220 248.400,92.000 248.400 C 91.780 248.400,91.600 249.120,91.600 250.000 C 91.600 250.880,91.420 251.600,91.200 251.600 C 90.980 251.600,90.800 252.500,90.800 253.600 C 90.800 254.700,90.620 255.600,90.400 255.600 C 90.180 255.600,90.000 256.320,90.000 257.200 C 90.000 258.080,89.820 258.800,89.600 258.800 C 89.380 258.800,89.200 259.520,89.200 260.400 C 89.200 261.280,89.020 262.000,88.800 262.000 C 88.580 262.000,88.400 262.900,88.400 264.000 C 88.400 265.100,88.220 266.000,88.000 266.000 C 87.780 266.000,87.600 266.720,87.600 267.600 C 87.600 268.480,87.420 269.200,87.200 269.200 C 86.980 269.200,86.800 269.909,86.800 270.776 C 86.800 271.643,86.620 272.464,86.400 272.600 C 86.180 272.736,86.000 273.647,86.000 274.624 C 86.000 275.601,85.820 276.400,85.600 276.400 C 85.380 276.400,85.200 277.120,85.200 278.000 C 85.200 278.880,85.020 279.600,84.800 279.600 C 84.560 279.600,84.400 281.200,84.400 283.600 C 84.400 286.000,84.560 287.600,84.800 287.600 C 85.020 287.600,85.200 287.865,85.200 288.189 C 85.200 289.437,88.726 292.400,90.211 292.400 C 90.975 292.400,91.600 292.579,91.600 292.797 C 91.600 293.058,124.259 293.195,187.200 293.198 C 250.925 293.202,282.800 293.069,282.800 292.802 C 282.800 292.581,283.520 292.400,284.400 292.400 C 285.280 292.400,286.000 292.220,286.000 292.000 C 286.000 291.780,286.320 291.600,286.712 291.600 C 287.103 291.600,287.683 291.240,288.000 290.800 C 288.317 290.360,288.813 290.000,289.102 290.000 C 289.731 290.000,292.400 287.408,292.400 286.797 C 292.400 286.560,292.760 285.980,293.200 285.508 C 293.640 285.036,294.000 284.233,294.000 283.725 C 294.000 283.216,294.180 282.800,294.400 282.800 C 294.620 282.800,294.800 282.091,294.800 281.224 C 294.800 280.357,294.980 279.536,295.200 279.400 C 295.420 279.264,295.600 278.353,295.600 277.376 C 295.600 276.399,295.780 275.600,296.000 275.600 C 296.220 275.600,296.400 274.880,296.400 274.000 C 296.400 273.120,296.580 272.400,296.800 272.400 C 297.020 272.400,297.200 271.691,297.200 270.824 C 297.200 269.957,297.359 269.149,297.553 269.029 C 297.747 268.909,297.916 268.047,297.929 267.114 C 297.942 266.180,298.143 265.352,298.376 265.275 C 298.609 265.197,298.800 264.428,298.800 263.567 C 298.800 262.705,298.980 262.000,299.200 262.000 C 299.420 262.000,299.600 261.291,299.600 260.424 C 299.600 259.557,299.780 258.736,300.000 258.600 C 300.220 258.464,300.400 257.553,300.400 256.576 C 300.400 255.599,300.580 254.800,300.800 254.800 C 301.020 254.800,301.200 254.080,301.200 253.200 C 301.200 252.320,301.380 251.600,301.600 251.600 C 301.820 251.600,302.000 250.700,302.000 249.600 C 302.000 248.500,302.180 247.600,302.400 247.600 C 302.620 247.600,302.800 246.880,302.800 246.000 C 302.800 245.120,302.980 244.400,303.200 244.400 C 303.420 244.400,303.600 243.680,303.600 242.800 C 303.600 241.920,303.780 241.200,304.000 241.200 C 304.220 241.200,304.400 240.300,304.400 239.200 C 304.400 238.100,304.580 237.200,304.800 237.200 C 305.020 237.200,305.200 236.480,305.200 235.600 C 305.200 234.720,305.380 234.000,305.600 234.000 C 305.820 234.000,306.000 233.291,306.000 232.424 C 306.000 231.557,306.180 230.736,306.400 230.600 C 306.620 230.464,306.800 229.553,306.800 228.576 C 306.800 227.599,306.980 226.800,307.200 226.800 C 307.420 226.800,307.600 226.080,307.600 225.200 C 307.600 224.320,307.780 223.600,308.000 223.600 C 308.220 223.600,308.400 222.891,308.400 222.024 C 308.400 221.157,308.580 220.336,308.800 220.200 C 309.020 220.064,309.200 219.153,309.200 218.176 C 309.200 217.199,309.380 216.400,309.600 216.400 C 309.820 216.400,310.000 215.680,310.000 214.800 C 310.000 213.920,310.180 213.200,310.400 213.200 C 310.620 213.200,310.800 212.491,310.800 211.624 C 310.800 210.757,310.980 209.936,311.200 209.800 C 311.420 209.664,311.600 208.753,311.600 207.776 C 311.600 206.799,311.780 206.000,312.000 206.000 C 312.220 206.000,312.400 205.280,312.400 204.400 C 312.400 203.520,312.580 202.800,312.800 202.800 C 313.020 202.800,313.200 202.091,313.200 201.224 C 313.200 200.357,313.380 199.536,313.600 199.400 C 313.820 199.264,314.000 198.353,314.000 197.376 C 314.000 196.399,314.180 195.600,314.400 195.600 C 314.620 195.600,314.800 194.880,314.800 194.000 C 314.800 193.120,314.980 192.400,315.200 192.400 C 315.420 192.400,315.600 191.691,315.600 190.824 C 315.600 189.957,315.780 189.136,316.000 189.000 C 316.220 188.864,316.400 187.953,316.400 186.976 C 316.400 185.999,316.580 185.200,316.800 185.200 C 317.020 185.200,317.200 184.480,317.200 183.600 C 317.200 182.720,317.380 182.000,317.600 182.000 C 317.820 182.000,318.000 181.100,318.000 180.000 C 318.000 178.900,318.180 178.000,318.400 178.000 C 318.620 178.000,318.800 177.280,318.800 176.400 C 318.800 175.520,318.980 174.800,319.200 174.800 C 319.420 174.800,319.600 174.080,319.600 173.200 C 319.600 172.320,319.780 171.600,320.000 171.600 C 320.220 171.600,320.400 170.700,320.400 169.600 C 320.400 168.500,320.580 167.600,320.800 167.600 C 321.020 167.600,321.200 166.880,321.200 166.000 C 321.200 165.120,321.380 164.400,321.600 164.400 C 321.820 164.400,322.000 163.691,322.000 162.824 C 322.000 161.957,322.180 161.136,322.400 161.000 C 322.620 160.864,322.800 159.953,322.800 158.976 C 322.800 157.999,322.980 157.200,323.200 157.200 C 323.420 157.200,323.600 156.480,323.600 155.600 C 323.600 154.720,323.780 154.000,324.000 154.000 C 324.220 154.000,324.400 153.291,324.400 152.424 C 324.400 151.557,324.580 150.736,324.800 150.600 C 325.020 150.464,325.200 149.553,325.200 148.576 C 325.200 147.599,325.380 146.800,325.600 146.800 C 325.820 146.800,326.000 146.080,326.000 145.200 C 326.000 144.320,326.180 143.600,326.400 143.600 C 326.620 143.600,326.800 142.891,326.800 142.024 C 326.800 141.157,326.980 140.336,327.200 140.200 C 327.420 140.064,327.600 139.153,327.600 138.176 C 327.600 137.199,327.780 136.400,328.000 136.400 C 328.220 136.400,328.400 135.680,328.400 134.800 C 328.400 133.920,328.580 133.200,328.800 133.200 C 329.020 133.200,329.200 132.491,329.200 131.624 C 329.200 130.757,329.380 129.936,329.600 129.800 C 329.820 129.664,330.000 128.753,330.000 127.776 C 330.000 126.799,330.180 126.000,330.400 126.000 C 330.620 126.000,330.800 125.280,330.800 124.400 C 330.800 123.520,330.980 122.800,331.200 122.800 C 331.420 122.800,331.600 122.091,331.600 121.224 C 331.600 120.357,331.787 119.532,332.015 119.391 C 332.518 119.080,332.455 112.400,331.949 112.400 C 331.757 112.400,331.600 112.040,331.600 111.600 C 331.600 111.160,331.463 110.800,331.295 110.800 C 331.127 110.800,330.812 110.395,330.595 109.900 C 330.378 109.405,329.795 108.822,329.300 108.605 C 328.805 108.388,328.400 108.073,328.400 107.905 C 328.400 107.737,328.040 107.600,327.600 107.600 C 327.160 107.600,326.800 107.420,326.800 107.200 C 326.800 106.645,132.143 106.645,131.800 107.200 M173.200 127.200 C 173.200 127.420,173.472 127.600,173.805 127.600 C 174.138 127.600,174.804 127.825,175.284 128.100 C 176.371 128.723,190.800 143.082,190.800 143.541 C 190.800 144.120,192.249 145.216,192.597 144.901 C 192.779 144.735,192.801 144.821,192.646 145.092 C 192.467 145.403,194.430 147.643,197.982 151.182 C 201.072 154.261,203.600 156.957,203.600 157.174 C 203.600 157.391,206.300 160.277,209.600 163.587 C 212.900 166.897,215.600 169.760,215.600 169.950 C 215.600 170.140,218.660 173.387,222.400 177.165 C 226.140 180.944,229.200 184.181,229.200 184.359 C 229.200 184.538,230.775 186.304,232.700 188.284 C 236.324 192.011,237.200 193.163,237.200 194.195 C 237.200 194.528,237.380 194.800,237.600 194.800 C 237.822 194.800,238.000 195.859,238.000 197.176 C 238.000 198.483,237.820 199.664,237.600 199.800 C 237.380 199.936,237.200 200.447,237.200 200.935 C 237.200 201.424,236.840 202.083,236.400 202.400 C 235.960 202.717,235.600 203.213,235.600 203.502 C 235.600 204.144,233.002 206.800,232.374 206.800 C 232.125 206.800,231.417 207.340,230.800 208.000 C 230.183 208.660,229.431 209.200,229.128 209.200 C 228.825 209.200,228.317 209.560,228.000 210.000 C 227.683 210.440,227.220 210.800,226.971 210.800 C 226.722 210.800,225.954 211.340,225.263 212.000 C 224.572 212.660,223.775 213.200,223.492 213.200 C 223.209 213.200,222.717 213.560,222.400 214.000 C 222.083 214.440,221.620 214.800,221.371 214.800 C 221.122 214.800,220.354 215.340,219.663 216.000 C 218.972 216.660,218.157 217.200,217.850 217.200 C 217.544 217.200,217.199 217.560,217.084 218.000 C 216.965 218.454,216.538 218.800,216.097 218.800 C 215.669 218.800,214.754 219.340,214.063 220.000 C 213.372 220.660,212.608 221.200,212.364 221.200 C 212.120 221.200,211.417 221.740,210.800 222.400 C 210.183 223.060,209.431 223.600,209.128 223.600 C 208.825 223.600,208.317 223.960,208.000 224.400 C 207.683 224.840,207.175 225.200,206.872 225.200 C 206.569 225.200,205.817 225.740,205.200 226.400 C 204.583 227.060,203.831 227.600,203.528 227.600 C 203.225 227.600,202.717 227.960,202.400 228.400 C 202.083 228.840,201.543 229.200,201.200 229.200 C 200.857 229.200,200.317 229.560,200.000 230.000 C 199.683 230.440,199.183 230.800,198.888 230.800 C 198.585 230.800,198.477 231.001,198.638 231.262 C 198.809 231.538,198.749 231.615,198.488 231.454 C 198.248 231.306,197.598 231.638,197.044 232.192 C 196.490 232.747,195.830 233.200,195.579 233.200 C 195.327 233.200,194.617 233.740,194.000 234.400 C 193.383 235.060,192.631 235.600,192.328 235.600 C 192.025 235.600,191.517 235.960,191.200 236.400 C 190.883 236.840,190.375 237.200,190.072 237.200 C 189.769 237.200,189.017 237.740,188.400 238.400 C 187.783 239.060,187.031 239.600,186.728 239.600 C 186.425 239.600,185.917 239.960,185.600 240.400 C 185.283 240.840,184.775 241.200,184.472 241.200 C 184.169 241.200,183.417 241.740,182.800 242.400 C 182.183 243.060,181.460 243.600,181.192 243.600 C 180.924 243.600,180.169 244.185,179.513 244.900 C 178.857 245.615,178.438 245.975,178.583 245.700 C 179.051 244.813,178.352 245.167,177.200 246.400 C 176.583 247.060,175.831 247.600,175.528 247.600 C 175.225 247.600,174.717 247.960,174.400 248.400 C 174.083 248.840,173.575 249.200,173.272 249.200 C 172.969 249.200,172.217 249.740,171.600 250.400 C 170.983 251.060,170.231 251.600,169.928 251.600 C 169.625 251.600,169.117 251.960,168.800 252.400 C 168.483 252.840,168.020 253.200,167.771 253.200 C 167.522 253.200,166.754 253.740,166.063 254.400 C 165.372 255.060,164.575 255.600,164.292 255.600 C 164.009 255.600,163.517 255.960,163.200 256.400 C 162.883 256.840,162.420 257.200,162.171 257.200 C 161.922 257.200,161.154 257.740,160.463 258.400 C 159.772 259.060,158.975 259.600,158.692 259.600 C 158.409 259.600,157.917 259.960,157.600 260.400 C 157.283 260.840,156.820 261.200,156.571 261.200 C 156.322 261.200,155.554 261.740,154.863 262.400 C 154.172 263.060,153.375 263.600,153.092 263.600 C 152.809 263.600,152.317 263.960,152.000 264.400 C 151.683 264.840,151.220 265.200,150.971 265.200 C 150.722 265.200,149.954 265.740,149.263 266.400 C 148.572 267.060,147.775 267.600,147.492 267.600 C 147.209 267.600,146.717 267.960,146.400 268.400 C 146.083 268.840,145.424 269.200,144.935 269.200 C 144.447 269.200,143.936 269.380,143.800 269.600 C 143.664 269.820,142.483 270.000,141.176 270.000 C 139.859 270.000,138.800 269.822,138.800 269.600 C 138.800 269.380,138.440 269.200,138.000 269.200 C 137.560 269.200,137.200 269.020,137.200 268.800 C 137.200 268.580,136.925 268.400,136.589 268.400 C 135.796 268.400,132.400 265.004,132.400 264.211 C 132.400 263.875,132.220 263.600,132.000 263.600 C 131.780 263.600,131.600 263.060,131.600 262.400 C 131.600 261.740,131.420 261.200,131.200 261.200 C 130.980 261.200,130.800 260.480,130.800 259.600 C 130.800 258.720,130.980 258.000,131.200 258.000 C 131.420 258.000,131.600 257.460,131.600 256.800 C 131.600 256.140,131.780 255.600,132.000 255.600 C 132.220 255.600,132.400 255.324,132.400 254.987 C 132.400 254.337,134.927 251.600,135.527 251.600 C 135.722 251.600,136.446 251.060,137.137 250.400 C 137.828 249.740,138.625 249.200,138.908 249.200 C 139.191 249.200,139.683 248.840,140.000 248.400 C 140.317 247.960,140.817 247.600,141.112 247.600 C 141.415 247.600,141.523 247.399,141.362 247.138 C 141.191 246.862,141.251 246.785,141.512 246.946 C 141.752 247.094,142.402 246.762,142.956 246.208 C 143.510 245.653,144.170 245.200,144.421 245.200 C 144.673 245.200,145.383 244.660,146.000 244.000 C 146.617 243.340,147.369 242.800,147.672 242.800 C 147.975 242.800,148.483 242.440,148.800 242.000 C 149.117 241.560,149.580 241.200,149.829 241.200 C 150.078 241.200,150.846 240.660,151.537 240.000 C 152.228 239.340,153.025 238.800,153.308 238.800 C 153.591 238.800,154.083 238.440,154.400 238.000 C 154.717 237.560,155.180 237.200,155.429 237.200 C 155.678 237.200,156.446 236.660,157.137 236.000 C 157.828 235.340,158.625 234.800,158.908 234.800 C 159.191 234.800,159.683 234.440,160.000 234.000 C 160.317 233.560,160.817 233.200,161.112 233.200 C 161.415 233.200,161.523 232.999,161.362 232.738 C 161.191 232.462,161.251 232.385,161.512 232.546 C 161.752 232.694,162.402 232.362,162.956 231.808 C 163.510 231.253,164.170 230.800,164.421 230.800 C 164.673 230.800,165.383 230.260,166.000 229.600 C 166.617 228.940,167.369 228.400,167.672 228.400 C 167.975 228.400,168.483 228.040,168.800 227.600 C 169.117 227.160,169.580 226.800,169.829 226.800 C 170.078 226.800,170.846 226.260,171.537 225.600 C 172.228 224.940,173.025 224.400,173.308 224.400 C 173.591 224.400,174.083 224.040,174.400 223.600 C 174.717 223.160,175.180 222.800,175.429 222.800 C 175.678 222.800,176.446 222.260,177.137 221.600 C 177.828 220.940,178.625 220.400,178.908 220.400 C 179.191 220.400,179.683 220.040,180.000 219.600 C 180.317 219.160,180.817 218.800,181.112 218.800 C 181.415 218.800,181.523 218.599,181.362 218.338 C 181.191 218.062,181.251 217.985,181.512 218.146 C 181.752 218.294,182.402 217.962,182.956 217.408 C 183.510 216.853,184.170 216.400,184.421 216.400 C 184.673 216.400,185.383 215.860,186.000 215.200 C 186.617 214.540,187.369 214.000,187.672 214.000 C 187.975 214.000,188.483 213.640,188.800 213.200 C 189.117 212.760,189.580 212.400,189.829 212.400 C 190.078 212.400,190.846 211.860,191.537 211.200 C 192.228 210.540,193.025 210.000,193.308 210.000 C 193.591 210.000,194.083 209.640,194.400 209.200 C 194.717 208.760,195.180 208.400,195.429 208.400 C 195.678 208.400,196.446 207.860,197.137 207.200 C 197.828 206.540,198.592 206.000,198.836 206.000 C 199.080 206.000,199.783 205.460,200.400 204.800 C 201.017 204.140,201.769 203.600,202.072 203.600 C 202.375 203.600,202.883 203.240,203.200 202.800 C 203.517 202.360,203.980 202.000,204.229 202.000 C 204.478 202.000,205.246 201.460,205.937 200.800 C 206.628 200.140,207.392 199.600,207.636 199.600 C 207.880 199.600,208.583 199.060,209.200 198.400 C 209.817 197.740,210.609 197.200,210.960 197.200 C 213.154 197.200,211.686 194.524,206.800 189.616 C 204.160 186.964,202.000 184.638,202.000 184.447 C 202.000 184.256,198.760 180.830,194.800 176.833 C 190.840 172.836,187.600 169.416,187.600 169.233 C 187.600 169.050,184.360 165.630,180.400 161.633 C 176.440 157.636,173.200 154.213,173.200 154.026 C 173.200 153.839,170.860 151.321,168.000 148.430 C 165.140 145.540,162.800 142.910,162.800 142.587 C 162.800 142.264,162.620 142.000,162.400 142.000 C 162.180 142.000,162.000 141.640,162.000 141.200 C 162.000 140.760,161.820 140.400,161.600 140.400 C 161.367 140.400,161.200 139.067,161.200 137.200 C 161.200 135.333,161.367 134.000,161.600 134.000 C 161.820 134.000,162.000 133.726,162.000 133.391 C 162.000 133.057,162.986 131.797,164.191 130.591 C 165.397 129.386,166.657 128.400,166.991 128.400 C 167.326 128.400,167.600 128.220,167.600 128.000 C 167.600 127.780,168.039 127.600,168.576 127.600 C 169.113 127.600,169.664 127.420,169.800 127.200 C 169.936 126.980,170.757 126.800,171.624 126.800 C 172.491 126.800,173.200 126.980,173.200 127.200 M256.600 249.600 C 256.736 249.820,257.203 250.000,257.637 250.000 C 258.568 250.000,261.200 252.501,261.200 253.387 C 261.200 253.724,261.380 254.000,261.600 254.000 C 261.820 254.000,262.000 254.360,262.000 254.800 C 262.000 255.240,262.180 255.600,262.400 255.600 C 262.620 255.600,262.800 256.500,262.800 257.600 C 262.800 258.700,262.620 259.600,262.400 259.600 C 262.180 259.600,262.000 259.960,262.000 260.400 C 262.000 260.840,261.820 261.200,261.600 261.200 C 261.380 261.200,261.200 261.476,261.200 261.813 C 261.200 262.609,258.609 265.200,257.813 265.200 C 257.476 265.200,257.200 265.380,257.200 265.600 C 257.200 265.863,248.267 266.000,231.200 266.000 C 214.133 266.000,205.200 265.863,205.200 265.600 C 205.200 265.380,204.925 265.200,204.589 265.200 C 203.558 265.200,200.400 261.740,200.400 260.611 C 200.400 260.055,200.220 259.600,200.000 259.600 C 199.780 259.600,199.600 258.700,199.600 257.600 C 199.600 256.500,199.780 255.600,200.000 255.600 C 200.220 255.600,200.400 255.145,200.400 254.589 C 200.400 253.460,203.558 250.000,204.589 250.000 C 204.925 250.000,205.200 249.820,205.200 249.600 C 205.200 249.338,213.992 249.200,230.776 249.200 C 247.396 249.200,256.439 249.340,256.600 249.600 " stroke="none" fill="#346ce4" fill-rule="evenodd"></path><path id="path1" d="" stroke="none" fill="#386ce4" fill-rule="evenodd"></path><path id="path2" d="" stroke="none" fill="#386ce4" fill-rule="evenodd"></path><path id="path3" d="" stroke="none" fill="#386ce4" fill-rule="evenodd"></path><path id="path4" d="" stroke="none" fill="#386ce4" fill-rule="evenodd"></path></g></svg>